<svg xmlns="http://www.w3.org/2000/svg" width="1036" height="813" fill="none" viewBox="0 0 1036 813"><mask id="mask0_495_530" width="519" height="559" x="272" y="254" maskUnits="userSpaceOnUse" style="mask-type:alpha"><path fill="#fff" d="M340.485 255.914L752.799 354.294C776.741 360.007 792.73 382.595 790.159 407.074L751.493 775.245C749.07 798.314 728.405 815.051 705.336 812.628C705.083 812.602 704.83 812.573 704.578 812.542L309.203 763.743C287.861 761.109 271.956 742.781 272.355 721.281L280.121 302.667C280.623 275.61 302.965 254.083 330.022 254.585C333.547 254.65 337.055 255.096 340.485 255.914Z"/></mask><g mask="url(#mask0_495_530)"><path fill="#FFD359" d="M340.485 255.914L752.799 354.294C776.741 360.007 792.73 382.595 790.159 407.074L751.493 775.245C749.07 798.314 728.405 815.051 705.336 812.628C705.083 812.602 704.83 812.573 704.578 812.542L309.203 763.743C287.861 761.109 271.956 742.781 272.355 721.281L280.121 302.667C280.623 275.61 302.965 254.083 330.022 254.585C333.547 254.65 337.055 255.096 340.485 255.914Z"/><path fill="#2B2A2C" fill-rule="evenodd" d="M271.654 703.725L516.649 529.781L602.649 595.781L484.149 798.281L278.154 778.781C274.796 756.717 272.63 740.05 271.654 728.781C270.678 717.512 270.678 709.16 271.654 703.725Z" clip-rule="evenodd"/></g><path fill="#433F46" d="M505.152 296.709C505.155 296.845 505.148 296.983 505.129 297.123L494.07 377.338C499.892 379.034 504.147 384.411 504.147 390.781C504.147 398.467 497.954 404.706 490.286 404.781L483.57 453.494C489.135 455.346 493.147 460.595 493.147 466.781C493.147 474.291 487.234 480.42 479.81 480.766L467.629 569.123C467.44 570.49 466.179 571.446 464.811 571.258C463.443 571.069 462.487 569.808 462.676 568.44L474.854 480.111C469.222 478.298 465.147 473.015 465.147 466.781C465.147 459.226 471.132 453.068 478.62 452.791L485.355 403.94C479.983 401.983 476.147 396.83 476.147 390.781C476.147 383.404 481.854 377.359 489.094 376.82L500.176 296.44C500.191 296.33 500.213 296.224 500.241 296.12L359.152 348.281L448.652 281.281L551.652 305.781L593.652 396.781L505.152 296.709ZM714.27 488.597L719.024 490.148L618.279 799.056L613.526 797.506L714.27 488.597ZM393.652 618.781L273.152 702.781L280.152 296.781L300.961 353.479L393.652 618.781Z"/><mask id="mask1_495_530" width="215" height="301" x="470" y="8" maskUnits="userSpaceOnUse" style="mask-type:alpha"><path fill="#fff" d="M577.733 246.326L577.692 308.048L472.089 302.298L471.022 174.067C470.644 170.873 470.449 167.622 470.449 164.326V90.1465C470.449 44.8591 507.162 8.14648 552.449 8.14648H602.808C648.096 8.14648 684.808 44.8591 684.808 90.1465V164.326C684.808 209.613 648.096 246.326 602.808 246.326H577.733Z"/></mask><g mask="url(#mask1_495_530)"><path fill="#81A6FF" d="M562.411 245.003L551.654 305.78L448.654 281.78L469.869 155.312C470.052 152.1 470.425 148.865 470.997 145.619L483.878 72.5667C491.742 27.9674 534.272 -1.81242 578.871 6.05165L628.465 14.7964C673.065 22.6605 702.844 65.1904 694.98 109.79L682.099 182.842C674.235 227.442 631.705 257.222 587.106 249.358L562.411 245.003Z"/></g><mask id="mask2_495_530" width="215" height="301" x="470" y="8" maskUnits="userSpaceOnUse" style="mask-type:alpha"><path fill="#fff" d="M577.346 246.293L577.306 308.015L471.703 302.265L470.635 174.034C470.257 170.84 470.062 167.589 470.062 164.293V90.1133C470.062 44.8259 506.775 8.11328 552.062 8.11328H602.421C647.709 8.11328 684.421 44.8259 684.421 90.1133V164.293C684.421 209.58 647.709 246.293 602.421 246.293H577.346Z"/></mask><g mask="url(#mask2_495_530)"><path fill="#DD9A4C" d="M562.025 244.97L551.267 305.747L448.267 281.747L469.483 155.279C469.665 152.067 470.038 148.832 470.61 145.586L483.491 72.5335C491.355 27.9342 533.885 -1.84562 578.485 6.01845L628.079 14.7632C672.678 22.6273 702.458 65.1572 694.594 109.757L681.713 182.809C673.848 227.409 631.318 257.188 586.719 249.324L562.025 244.97Z"/><path fill="#383838" fill-rule="evenodd" d="M483.652 88.2793L680.152 16.7793L565.473 -8.2207L474.652 9.20533L483.652 88.2793Z" clip-rule="evenodd"/></g><path fill="#383838" d="M441.439 36.6505L435.57 35.403C406.398 29.2024 377.723 47.8241 371.523 76.9958L370.275 82.8646C364.075 112.036 382.696 140.711 411.868 146.912L417.737 148.159C446.909 154.36 475.583 135.738 481.784 106.567L483.032 100.698C489.232 71.526 470.611 42.8511 441.439 36.6505Z"/><path fill="#383838" fill-rule="evenodd" d="M587.652 197.28L604.846 211.036C608.329 213.822 612.448 215.702 616.836 216.508L628.746 218.696C632.554 219.395 636.486 218.69 639.814 216.711L653.152 208.78L643.098 198.726C641.252 196.88 638.621 196.051 636.05 196.504L631.652 197.28L623.277 192.331C621.587 191.332 619.588 190.99 617.661 191.37L587.652 197.28Z" clip-rule="evenodd"/><path stroke="#4F72C5" stroke-linecap="round" stroke-linejoin="round" stroke-width="3" d="M693.154 115.78C679.071 110.851 663.826 112.613 646.402 119.335"/><path fill="#C55858" fill-rule="evenodd" d="M615.216 182.617L647.647 188.905C650.358 189.431 652.982 187.659 653.508 184.948C653.655 184.186 653.624 183.4 653.415 182.653C649.64 169.123 647.589 158.589 647.262 151.05C646.874 142.116 645.207 138.45 642.262 140.05L643.655 116.08L641.155 116.08C629.395 144.901 622.894 161.401 621.65 165.58C620.876 168.18 610.335 169.391 609.262 174.55C609.064 175.499 609.368 176.862 610.174 178.637C611.111 180.702 612.99 182.185 615.216 182.617Z" clip-rule="evenodd"/><path fill="#8C8C8C" d="M737.627 295.093L720.547 291.773L674.74 527.428L691.82 530.748L737.627 295.093Z"/><path fill="#383838" d="M716.174 369.493L712.567 368.792C701.182 366.579 690.159 374.014 687.946 385.399L661.553 521.178C659.34 532.563 666.776 543.587 678.161 545.8L681.767 546.501C693.152 548.714 704.175 541.278 706.388 529.893L732.781 394.114C734.994 382.729 727.558 371.706 716.174 369.493Z"/><path fill="#383838" fill-rule="evenodd" d="M733.29 261.517L736.896 262.218C748.281 264.431 755.716 275.454 753.503 286.839L749.913 305.311C748.851 310.772 744.175 314.788 738.617 315.012C733.53 315.217 729.206 314.973 725.645 314.281C721.918 313.556 717.391 312.023 712.063 309.679C706.93 307.421 704.045 301.91 705.115 296.405L708.669 278.124C710.882 266.739 721.905 259.304 733.29 261.517Z" clip-rule="evenodd"/><path fill="#898989" fill-rule="evenodd" d="M645.291 242.16C624.146 208.322 622.681 168.624 634.147 133.78C642.995 106.895 658.664 82.8784 684.381 66.8084C704.513 54.2284 725.942 49.4262 747.647 48.7805C760.664 48.3932 773.941 48.2986 786.647 52.2805C799.466 56.2979 816.113 63.9998 827.647 72.2805C841.53 82.2467 849.822 93.6593 859.122 108.543C870.652 126.994 876.64 147.567 878.147 167.78C878.946 178.488 877.079 192.707 875.147 202.78C872.23 217.996 867.578 228.644 859.147 242.28C849.463 257.944 836.736 273.457 820.032 283.895C807.415 291.779 794.179 297.537 780.647 300.28C760.595 304.346 739.948 302.489 720.147 296.78C706.958 292.978 691.941 286.483 680.147 278.78C665.677 269.33 654.984 257.673 645.291 242.16ZM660.029 233.273C692.031 284.488 759.167 300.265 809.982 268.513C860.796 236.761 876.046 169.503 844.044 118.288C812.041 67.074 744.905 51.2968 694.091 83.049C643.277 114.801 628.027 182.059 660.029 233.273Z" clip-rule="evenodd"/><mask id="mask3_495_530" width="223" height="220" x="640" y="65" maskUnits="userSpaceOnUse" style="mask-type:alpha"><path fill="#fff" d="M751.473 284.856C775.835 284.856 798.628 275.97 816.826 262.354C821.262 259.035 825.78 255.942 829.704 252.124C844.032 238.183 853.896 220.756 859.027 201.359C861.221 193.066 862.395 184.315 862.395 175.143C862.395 125.154 827.474 85.3208 781.245 72.0882C771.439 69.2811 762.194 65.4297 751.473 65.4297C716.297 65.4297 686.242 83.2466 665.921 108.51C650.852 127.244 640.551 149.343 640.551 175.143C640.551 196.185 647.545 215.938 657.93 232.636C677.447 264.022 711.487 284.856 751.473 284.856Z"/></mask><g mask="url(#mask3_495_530)"><path fill="#fff" d="M658.434 233.281C671.344 253.941 690.958 268.562 712.148 276.78C717.314 278.783 722.331 280.975 727.648 282.28C747.064 287.043 767.07 286.173 786.238 280.246C794.434 277.711 802.477 274.069 810.256 269.209C852.649 242.719 867.924 191.996 854.648 145.78C851.832 135.976 850.199 126.095 844.518 117.003C825.878 87.1717 794.842 71.1256 762.648 67.2797C738.776 64.4278 714.576 67.4026 692.696 81.0746C674.851 92.2255 661.807 108.624 653.148 126.28C636.875 159.464 637.245 199.371 658.434 233.281Z"/><path fill="#E0E0E0" fill-rule="evenodd" d="M771.702 157.517C766.927 155.497 763.341 154.389 758.043 153.263C752.526 152.09 747.207 151.866 741.752 151.804C735.386 151.731 729.29 152.896 723.009 154.335C717.669 155.559 709.652 158.464 698.958 163.051C706.167 171.343 711.829 177.084 715.944 180.275C722.225 185.145 728.162 189.762 735.492 192.594C738.516 193.762 742.181 195.052 745.68 196.031L688.121 281.221L642.412 217.72L806.906 45.211L832.232 67.9291L771.702 157.517ZM789.059 167.405C786.765 165.697 784.294 164.072 781.743 162.573L840.314 77.3108L846.638 79.2442L789.059 167.405ZM768.873 198.312L703.713 298.082L698.133 284.284L757.34 198.096C758.926 198.231 760.52 198.327 762.161 198.414C764.403 198.534 766.641 198.489 768.873 198.312Z" clip-rule="evenodd" opacity=".653"/><path fill="#383838" d="M771.893 200.755C768.525 201.132 765.341 201.215 762.095 201.012C758.168 200.767 755.301 200.507 752.61 200.089L747.749 224.631C747.484 225.968 746.167 226.818 744.806 226.53C743.446 226.243 742.557 224.926 742.822 223.59L747.671 199.107C743.765 198.157 739.121 196.615 734.494 194.812C732.432 194.008 730.454 193.079 728.451 191.977L713.973 204.161C712.929 205.039 711.344 204.903 710.432 203.855C709.521 202.808 709.628 201.246 710.672 200.368L723.914 189.224C722.498 188.292 721.035 187.265 719.491 186.131C717.997 185.034 716.871 184.178 714.116 182.059C709.794 178.735 703.955 172.894 696.538 164.499C695.41 163.222 695.848 161.255 697.404 160.609C708.221 156.122 716.361 153.284 721.89 152.086C729.963 150.338 735.443 149.588 741.268 149.712C748.335 149.862 753.094 150.275 758.13 151.378C763.744 152.609 767.541 153.816 772.615 155.991C778.81 158.647 785.1 162.23 790.415 166.161C795.073 169.605 801.73 176.002 810.457 185.397C811.624 186.653 811.225 188.644 809.67 189.319C801.644 192.8 795.615 195.139 791.543 196.345C786.001 197.986 781.297 199.195 777.02 199.986L783.485 213.796C784.07 215.047 783.526 216.508 782.27 217.061C781.014 217.614 779.521 217.048 778.935 215.798L771.893 200.755ZM790.013 191.601C793.312 190.624 798.114 188.803 804.392 186.145C797.04 178.36 791.377 173.001 787.456 170.101C782.466 166.411 776.524 163.026 770.691 160.526C765.921 158.481 762.435 157.373 757.133 156.211C752.49 155.193 748.022 154.805 741.259 154.661C735.917 154.548 730.778 155.252 723.058 156.923C718.421 157.927 711.587 160.247 702.604 163.877C708.725 170.661 713.588 175.436 717.153 178.177C719.877 180.272 720.984 181.114 722.437 182.181C727.635 185.999 731.767 188.462 736.258 190.212C741.151 192.119 746.061 193.719 749.896 194.56C753.555 195.362 756.809 195.728 762.313 196.071C770.262 196.568 778.022 195.151 790.013 191.601ZM752.001 185.577C748.873 184.892 745.368 181.434 743.921 178.718C742.691 176.41 742.911 173.941 743.49 171.135C744.074 168.298 745.488 166.247 747.555 164.654C749.94 162.816 753.149 161.69 756.25 162.37C759.777 163.143 764.393 164.803 765.711 168.039C766.556 170.113 767.461 174.195 766.97 176.582C766.49 178.906 764.575 181.236 763.047 182.762C760.56 185.247 755.587 186.363 752.001 185.577Z"/></g><path fill="#fff" fill-rule="evenodd" d="M544.331 116.301C546.793 128.641 556.916 137.676 574.699 143.404C592.482 149.132 605.908 147.404 614.977 138.221C608.424 123.505 599.019 114.227 586.762 110.386C574.504 106.544 560.361 108.516 544.331 116.301Z" clip-rule="evenodd"/><path fill="#383838" fill-rule="evenodd" d="M590.49 137.758C593.391 137.96 596.246 136.574 597.949 134.198C598.994 132.738 599.493 130.865 599.632 128.874C599.775 126.829 599.583 124.984 598.706 123.367C597.338 120.844 594.669 119.003 591.815 118.804C589.307 118.628 586.791 119.229 585.103 121.055C583.64 122.639 582.843 125.257 582.673 127.688C582.505 130.092 582.953 132.831 584.157 134.594C585.573 136.669 587.958 137.581 590.49 137.758Z" clip-rule="evenodd"/><path fill="#C55858" fill-rule="evenodd" d="M543.907 116.38C563.699 118.351 579.036 121.001 589.919 124.329C600.802 127.658 609.347 132.312 615.553 138.291C612.616 123.212 602.887 113.292 586.367 108.532C569.847 103.771 555.693 106.387 543.907 116.38Z" clip-rule="evenodd"/><path fill="#383838" fill-rule="evenodd" d="M620.97 133.345L575.148 92.2812L578.148 76.7812L634.148 129.281C633.084 133.594 628.725 136.229 624.412 135.165C623.133 134.849 621.951 134.224 620.97 133.345Z" clip-rule="evenodd"/><path fill="#383838" fill-rule="evenodd" d="M448.652 281.281L427.323 215.812C418.202 187.817 424.219 157.097 443.225 134.611L483.652 86.7812L448.652 281.281Z" clip-rule="evenodd"/><mask id="mask4_495_530" width="258" height="219" x="517" y="374" maskUnits="userSpaceOnUse" style="mask-type:alpha"><path fill="#fff" d="M517.645 532.425L673.357 389.514C677.807 385.43 683.254 382.59 689.15 381.28L686.15 394.28L740.589 375.663C747.649 373.248 755.362 376.795 758.125 383.726C758.666 385.086 759.322 386.533 760.091 388.069C765.493 398.854 765.493 408.602 760.091 417.313C767.986 419.802 772.556 425.817 773.803 435.358C775.049 444.899 772.764 452.365 766.947 457.758C776.347 475.275 769.766 497.096 752.249 506.496C751.256 507.028 750.239 507.514 749.201 507.952L745.756 509.402L622.352 550.469L598.668 592.78L517.645 532.425Z"/></mask><g mask="url(#mask4_495_530)"><path fill="#DD9A4C" d="M517.645 532.425L673.357 389.514C677.807 385.43 683.254 382.59 689.15 381.28L686.15 394.28L740.589 375.663C747.649 373.248 755.362 376.795 758.125 383.726C758.666 385.086 759.322 386.533 760.091 388.069C765.493 398.854 765.493 408.602 760.091 417.313C767.986 419.802 772.556 425.817 773.803 435.358C775.049 444.899 772.764 452.365 766.947 457.758C776.347 475.275 769.766 497.096 752.249 506.496C751.256 507.028 750.239 507.514 749.201 507.952L745.756 509.402L622.352 550.469L598.668 592.78L517.645 532.425Z"/><path fill="#935815" fill-rule="evenodd" d="M690.15 392.779L652.645 408.779C660.243 397.703 666.912 389.869 672.65 385.279C678.388 380.689 685.055 377.856 692.65 376.779L690.15 392.779Z" clip-rule="evenodd"/><path fill="#935815" d="M765.746 457.578C766.41 457.082 767.35 457.219 767.846 457.882C768.341 458.546 768.205 459.486 767.541 459.982C763.215 463.212 758.041 465.626 752.03 467.229C751.23 467.443 750.408 466.967 750.194 466.166C749.981 465.366 750.457 464.544 751.257 464.331C756.912 462.822 761.739 460.57 765.746 457.578ZM758.284 416.49C758.957 416.007 759.895 416.162 760.377 416.836C760.859 417.509 760.704 418.446 760.031 418.929C755.541 422.145 750.248 424.45 744.164 425.846C743.357 426.031 742.552 425.527 742.366 424.719C742.181 423.912 742.686 423.107 743.493 422.922C749.201 421.612 754.128 419.467 758.284 416.49Z"/></g><path fill="#FF8181" fill-rule="evenodd" d="M474.652 157.781C495.087 157.781 511.652 141.887 511.652 122.281C511.652 102.675 495.087 86.7812 474.652 86.7812C454.218 86.7812 437.652 102.675 437.652 122.281C437.652 137.605 447.772 150.661 461.949 155.633C465.91 157.023 470.189 157.781 474.652 157.781Z" clip-rule="evenodd"/><mask id="mask5_495_530" width="59" height="75" x="434" y="148" maskUnits="userSpaceOnUse" style="mask-type:alpha"><path fill="#fff" d="M453.197 151.258C456.112 153.043 459.268 154.659 462.751 155.956C460.055 156.449 457.462 157.691 455.304 159.695C444.176 170.025 439.641 185.643 443.504 200.327L444.142 202.751C444.654 204.697 445.523 206.53 446.705 208.158C451.972 215.41 462.12 217.019 469.372 211.753L470.001 211.296C482.883 201.941 487.635 184.95 481.473 170.27L479.2 164.852C478.523 163.24 477.568 161.759 476.378 160.478C474.794 158.771 472.904 157.519 470.871 156.728C471.756 152.534 472.311 149.902 472.535 148.83C476.13 149.995 479.487 152.068 482.241 155.035C484.069 157.004 485.537 159.279 486.576 161.757L488.85 167.174C496.448 185.279 490.589 206.232 474.702 217.769L474.073 218.226C463.246 226.089 448.095 223.685 440.232 212.858C438.467 210.428 437.17 207.691 436.406 204.787L435.768 202.363C431.153 184.825 436.57 166.17 449.861 153.832C450.912 152.857 452.029 151.999 453.197 151.258Z"/></mask><g mask="url(#mask5_495_530)"><path fill="#FFD359" d="M453.197 151.258C456.112 153.043 459.268 154.659 462.751 155.956C460.055 156.449 457.462 157.691 455.304 159.695C444.176 170.025 439.641 185.643 443.504 200.327L444.142 202.751C444.654 204.697 445.523 206.53 446.705 208.158C451.972 215.41 462.12 217.019 469.372 211.753L470.001 211.296C482.883 201.941 487.635 184.95 481.473 170.27L479.2 164.852C478.523 163.24 477.568 161.759 476.378 160.478C474.794 158.771 472.904 157.519 470.871 156.728C471.756 152.534 472.311 149.902 472.535 148.83C476.13 149.995 479.487 152.068 482.241 155.035C484.069 157.004 485.537 159.279 486.576 161.757L488.85 167.174C496.448 185.279 490.589 206.232 474.702 217.769L474.073 218.226C463.246 226.089 448.095 223.685 440.232 212.858C438.467 210.428 437.17 207.691 436.406 204.787L435.768 202.363C431.153 184.825 436.57 166.17 449.861 153.832C450.912 152.857 452.029 151.999 453.197 151.258Z"/><path fill="#FFD359" fill-rule="evenodd" d="M438.148 133.779L474.648 130.279L456.148 245.779L423.648 237.779L438.148 133.779Z" clip-rule="evenodd"/></g><path fill="#383838" fill-rule="evenodd" d="M233.129 63.7812V139.205L302.148 123.258L238.305 160.324L302.148 182.735L233.129 174.546L238.305 241.781L211.56 180.149L174.462 229.713L198.619 169.805C150.305 153.428 126.148 145.239 126.148 145.239C126.148 145.239 150.305 146.245 198.619 148.256L174.462 95.2437L211.56 134.464L233.129 63.7812ZM905.912 508.577L902.452 409.485L828.54 442.935L887.912 384.765L814.995 331.014L900.831 363.053L890.964 274.956L928.83 354.705L975.156 287.89L946.258 367.703C1005.79 370.645 1035.56 372.116 1035.56 372.116C1035.56 372.116 1006.12 380.082 947.246 396.015L981.325 464.557L930.926 414.726L905.912 508.577Z" clip-rule="evenodd"/><path fill="#383838" fill-rule="evenodd" d="M133.026 433.753L151.989 480.734L115.251 475.894L151.024 493.68C124.343 513.512 111.002 523.428 111.002 523.428C111.002 523.428 127.441 517.338 160.319 505.158L173.252 547.52L171.695 505.069L212.568 526.325L180.802 492.752L221.211 467.252L177.433 482.937L195.556 435.572L165.558 473.928L133.026 433.753Z" clip-rule="evenodd"/><path fill="#383838" d="M152.807 589.272C207.754 574.549 240.362 518.07 225.639 463.123C210.916 408.176 154.437 375.568 99.4904 390.291C44.5433 405.014 11.9354 461.493 26.6584 516.44C41.3814 571.387 97.8601 603.995 152.807 589.272Z"/><path fill="#fff" d="M100.022 502.504L102.461 511.607L94.0764 513.854L95.9058 520.681L85.126 523.57L83.2967 516.742L53.7123 524.669L51.2732 515.567L73.8933 481.648L84.673 478.76L91.6373 504.751L100.022 502.504ZM62.8914 512.453L80.8576 507.639L76.7817 492.428L62.8914 512.453ZM131.819 511.7C115.17 516.161 105.211 510.614 101.472 496.66C97.7494 482.766 103.617 473.042 120.265 468.581C136.854 464.136 146.873 469.668 150.58 483.502C154.303 497.395 148.408 507.255 131.819 511.7ZM129.396 502.657C138.858 500.122 141.902 494.235 139.8 486.39C137.714 478.605 132.151 475.089 122.688 477.624C113.226 480.16 110.15 485.926 112.252 493.771C114.37 501.677 119.934 505.192 129.396 502.657ZM204.226 474.583L206.665 483.686L198.281 485.933L200.11 492.76L189.33 495.648L187.501 488.821L157.916 496.748L155.477 487.645L178.097 453.727L188.877 450.839L195.841 476.83L204.226 474.583ZM167.095 484.532L185.062 479.718L180.986 464.507L167.095 484.532Z"/><path fill="#C55858" fill-rule="evenodd" d="M582.474 159.703C580.321 159.206 579.776 157.395 580.148 155.78C580.521 154.166 581.671 153.36 583.823 153.857C585.976 154.354 586.521 156.166 586.148 157.78C585.776 159.395 584.626 160.2 582.474 159.703ZM603.474 158.703C601.321 158.206 600.776 157.395 601.148 155.78C601.521 154.166 602.671 152.36 604.823 152.857C606.976 153.354 607.521 155.166 607.148 156.78C606.776 158.395 605.626 159.2 603.474 158.703ZM594.474 169.703C592.321 169.206 591.776 167.395 592.148 165.78C592.521 164.166 593.671 163.36 595.823 163.857C597.976 164.354 598.521 165.666 598.148 167.28C597.776 168.895 596.626 170.2 594.474 169.703ZM574.474 172.703C572.321 172.206 571.276 171.395 571.648 169.78C572.021 168.166 573.671 166.36 575.823 166.857C577.976 167.354 578.021 168.666 577.648 170.28C577.276 171.895 576.626 173.2 574.474 172.703ZM560.474 155.703C558.321 155.206 557.276 153.895 557.648 152.28C558.021 150.666 559.671 149.36 561.823 149.857C563.976 150.354 564.521 152.666 564.148 154.28C563.776 155.895 562.626 156.2 560.474 155.703Z" clip-rule="evenodd"/></svg>