<svg xmlns="http://www.w3.org/2000/svg" width="1263" height="1002" fill="none" viewBox="0 0 1263 1002"><path fill="#F2F2F2" d="M834.716 570.728C793.089 407.042 649.255 288.883 480.425 284.144C391.17 281.639 297.249 311.241 228.867 414.829C106.627 600.004 236.379 727.965 326.838 788.77C370.541 818.206 409.92 853.599 443.834 893.926C504.936 966.433 622.483 1056.53 762.477 915.36C863.944 813.036 862.443 679.759 834.716 570.728Z"/><path fill="#3F3D56" d="M952.9 911.631C952.9 943.893 801.178 1001.13 614.018 1001.13C426.859 1001.13 292.9 885.135 292.9 852.873C292.9 820.611 426.859 884.301 614.018 884.301C801.178 884.301 952.9 879.368 952.9 911.631Z"/><path fill="#FFCD42" d="M952.9 911.631C952.9 943.893 801.178 1001.13 614.018 1001.13C426.859 1001.13 292.9 885.135 292.9 852.873C292.9 820.611 426.859 884.301 614.018 884.301C801.178 884.301 952.9 879.368 952.9 911.631Z" opacity=".1"/><path fill="#CFD9E0" d="M952.9 911.289C952.9 943.551 801.178 969.705 614.018 969.705C426.859 969.705 292.9 885.135 292.9 852.873C292.9 820.611 426.859 852.873 614.018 852.873C801.178 852.873 952.9 879.027 952.9 911.289Z"/><path fill="#63AD44" d="M941.683 423.833C929.391 447.692 890.432 475.805 866.574 463.513C842.715 451.221 842.993 403.178 855.285 379.32C861.189 367.865 871.401 359.224 883.675 355.298C895.95 351.372 909.281 352.483 920.737 358.385C932.193 364.287 940.835 374.498 944.763 386.771C948.691 399.045 947.584 412.376 941.683 423.833V423.833Z" opacity=".7"/><path fill="#63AD44" d="M868.593 469.822C867.826 468.328 866.611 467.11 865.118 466.341C863.624 465.572 861.928 465.289 860.266 465.532L864.556 457.204L872.884 461.495L868.593 469.822Z" opacity=".7"/><path stroke="#2F2E41" stroke-miterlimit="10" stroke-width="2" d="M862.523 461.203C863.48 462.525 864.736 463.601 866.19 464.342C867.643 465.083 869.252 465.469 870.883 465.467" opacity=".7"/><path fill="#fff" d="M934.934 397.304C938.044 391.268 936.487 384.273 931.457 381.681C926.426 379.09 919.827 381.882 916.717 387.919C913.607 393.955 915.164 400.95 920.194 403.541C925.225 406.133 931.824 403.34 934.934 397.304Z" opacity=".4"/><path stroke="#2F2E41" stroke-miterlimit="10" stroke-width="2" d="M866.351 463.812L830.096 555.044" opacity=".7"/><path stroke="#2F2E41" stroke-miterlimit="10" stroke-width="2" d="M825.801 587.065C826.534 589.271 827.781 591.27 829.438 592.899C831.095 594.528 833.116 595.741 835.333 596.437"/><path fill="#FFCD42" d="M949.337 570.185C922.426 597.335 857.465 618.85 830.315 591.938C803.165 565.026 824.107 499.879 851.019 472.729C863.944 459.699 881.515 452.335 899.868 452.257C918.222 452.18 935.854 459.394 948.889 472.315C961.924 485.235 969.294 502.804 969.378 521.157C969.462 539.51 962.253 557.145 949.337 570.185Z"/><path fill="#FFCD42" d="M830.355 601.374C829.953 599.015 828.823 596.841 827.124 595.157C825.425 593.472 823.241 592.362 820.879 591.98L830.272 582.504L839.749 591.897L830.355 601.374Z"/><path stroke="#2F2E41" stroke-miterlimit="10" stroke-width="2" d="M828.505 594.228L739.27 684.253"/><path fill="#fff" d="M951.523 531.256C958.332 524.386 959.212 514.218 953.487 508.544C947.763 502.87 937.603 503.838 930.794 510.708C923.985 517.577 923.105 527.745 928.83 533.419C934.554 539.094 944.714 538.125 951.523 531.256Z" opacity=".4"/><path fill="#FF6584" d="M529.524 433.999C557.904 459.609 582.437 523.491 556.827 551.871C531.216 580.252 465.159 562.384 436.779 536.773C423.158 524.472 414.979 507.265 414.042 488.936C413.105 470.606 419.486 452.655 431.782 439.029C444.078 425.404 461.282 417.22 479.611 416.276C497.94 415.333 515.894 421.708 529.524 433.999Z"/><path fill="#FF6584" d="M566.251 551.39C563.914 551.902 561.795 553.132 560.192 554.908C558.589 556.685 557.582 558.918 557.312 561.295L547.406 552.356L556.345 542.45L566.251 551.39Z"/><path stroke="#2F2E41" stroke-miterlimit="10" stroke-width="2" d="M559.198 553.572L653.303 638.494"/><path fill="#fff" d="M490.536 433.638C483.355 427.158 473.157 426.756 467.757 432.74C462.357 438.724 463.8 448.827 470.981 455.307C478.161 461.787 488.36 462.189 493.76 456.205C499.16 450.222 497.716 440.118 490.536 433.638Z" opacity=".4"/><path fill="#FF6584" d="M610.515 422.731C643.633 452.802 672.276 527.795 642.408 561.099C612.539 594.404 535.47 573.408 502.352 543.336C486.457 528.893 476.91 508.693 475.811 487.177C474.711 465.662 482.149 444.593 496.49 428.603C510.83 412.613 530.898 403.012 552.28 401.911C573.663 400.81 594.61 408.299 610.515 422.731Z"/><path fill="#FF6584" d="M653.402 560.537C650.676 561.138 648.204 562.581 646.335 564.666C644.465 566.75 643.291 569.371 642.977 572.162L631.417 561.666L641.843 550.041L653.402 560.537Z"/><path stroke="#2F2E41" stroke-miterlimit="10" stroke-width="2" d="M645.175 563.097L754.989 662.81"/><path fill="#fff" d="M565.032 422.295C556.653 414.686 544.755 414.211 538.458 421.233C532.16 428.255 533.847 440.115 542.227 447.724C550.606 455.332 562.504 455.808 568.801 448.786C575.099 441.764 573.411 429.903 565.032 422.295Z" opacity=".4"/><path fill="#B75DE1" d="M785.158 313.289C791.578 357.56 765.967 433.641 721.734 440.334C677.502 447.027 631.398 381.797 624.978 337.526C621.903 316.271 627.389 294.612 640.229 277.313C653.069 260.014 672.212 248.49 693.448 245.277C714.684 242.064 736.275 247.424 753.473 260.178C770.671 272.932 782.068 292.036 785.158 313.289Z"/><path fill="#FF6584" d="M730.574 446.896C728.088 445.624 725.263 445.166 722.495 445.585C719.726 446.003 717.153 447.279 715.135 449.232L712.894 433.779L728.333 431.443L730.574 446.896Z"/><path stroke="#2F2E41" stroke-miterlimit="10" stroke-width="2" d="M722.599 443.635L755.16 668.172"/><path fill="#fff" d="M750.342 284.016C748.717 272.815 739.84 264.879 730.514 266.29C721.188 267.701 714.944 277.925 716.569 289.126C718.193 300.327 727.07 308.263 736.396 306.852C745.722 305.441 751.966 295.217 750.342 284.016Z" opacity=".4"/><path fill="#63AD44" fill-opacity=".97" d="M635.106 269.727C661.901 314.822 668.241 408.742 623.31 435.815C578.378 462.889 499.189 412.864 472.395 367.769C459.538 346.114 455.777 320.187 461.938 295.687C468.1 271.188 483.679 250.123 505.251 237.125C526.823 224.127 552.621 220.259 576.972 226.373C601.324 232.487 622.234 248.081 635.106 269.727Z"/><path fill="#FF6584" d="M635.828 438.965C632.565 438.701 629.298 439.47 626.486 441.165C623.673 442.859 621.456 445.394 620.145 448.415L610.792 432.675L626.475 423.225L635.828 438.965Z"/><path stroke="#2F2E41" stroke-miterlimit="10" stroke-width="2" d="M625.725 439.006L761.626 667.725"/><path fill="#fff" d="M584.26 253.608C577.481 242.198 564.305 237.577 554.831 243.285C545.358 248.993 543.174 262.87 549.953 274.28C556.733 285.689 569.908 290.311 579.382 284.603C588.855 278.894 591.039 265.018 584.26 253.608Z" opacity=".4"/><path fill="#63AD44" d="M1103.38 441.69C1066.86 479.339 977.86 510.006 939.984 473.712C902.108 437.419 929.697 347.908 966.221 310.258C983.763 292.189 1007.81 281.782 1033.06 281.326C1058.32 280.87 1082.73 290.402 1100.91 307.827C1119.1 325.252 1129.57 349.143 1130.04 374.245C1130.5 399.348 1120.91 423.608 1103.38 441.69Z"/><path fill="#FF6584" d="M940.216 486.619C939.618 483.4 938.022 480.448 935.651 478.176C933.281 475.905 930.254 474.427 926.996 473.951L939.745 460.809L952.965 473.477L940.216 486.619Z"/><path stroke="#2F2E41" stroke-miterlimit="10" stroke-width="2" d="M937.535 476.878L752.285 667.833"/><path fill="#fff" d="M1105.65 388.399C1114.89 378.873 1115.91 364.948 1107.92 357.295C1099.94 349.643 1085.97 351.162 1076.73 360.688C1067.49 370.213 1066.47 384.139 1074.46 391.791C1082.45 399.444 1096.41 397.925 1105.65 388.399Z" opacity=".4"/><path fill="#63AD44" d="M865.222 482.23C856.354 519.415 812.057 571.573 774.872 562.706C737.687 553.838 721.696 487.302 730.564 450.117C734.832 432.271 746.012 416.85 761.647 407.244C777.281 397.638 796.09 394.633 813.939 398.889C831.788 403.146 847.216 414.316 856.833 429.944C866.449 445.572 869.467 464.378 865.222 482.23V482.23Z"/><path fill="#63AD44" d="M779.815 570.742C778.245 568.937 776.15 567.667 773.822 567.112C771.495 566.557 769.052 566.744 766.836 567.647L769.931 554.668L782.91 557.763L779.815 570.742Z"/><path stroke="#2F2E41" stroke-miterlimit="10" stroke-width="2" d="M768.482 560.891C770.256 562.393 772.36 563.452 774.623 563.982C776.886 564.512 779.242 564.497 781.497 563.938"/><path fill="#fff" d="M846.847 447.841C849.091 438.433 844.554 429.291 836.714 427.421C828.873 425.551 820.699 431.662 818.455 441.07C816.211 450.479 820.748 459.621 828.588 461.491C836.429 463.361 844.603 457.25 846.847 447.841Z" opacity=".4"/><path stroke="#2F2E41" stroke-miterlimit="10" stroke-width="2" d="M774.666 565.585L745.262 688.885"/><path fill="#63AD44" d="M453.054 808.278C433.724 827.088 387.624 841.439 368.814 822.109C350.004 802.779 365.607 757.088 384.937 738.278C389.533 733.805 394.965 730.281 400.923 727.908C406.881 725.535 413.249 724.358 419.661 724.446C426.074 724.533 432.407 725.883 438.298 728.418C444.189 730.953 449.523 734.623 453.996 739.219C458.468 743.816 461.992 749.248 464.365 755.206C466.738 761.164 467.915 767.531 467.827 773.944C467.74 780.357 466.39 786.689 463.855 792.581C461.321 798.472 457.65 803.806 453.054 808.278V808.278Z" opacity=".8"/><path fill="#63AD44" d="M368.724 828.766C368.47 827.097 367.701 825.549 366.523 824.339C365.346 823.129 363.82 822.318 362.158 822.019L368.905 815.453L375.471 822.2L368.724 828.766Z" opacity=".8"/><path stroke="#2F2E41" stroke-miterlimit="10" stroke-width="2" d="M365.691 818.614C366.181 820.179 367.035 821.605 368.183 822.776C369.331 823.946 370.741 824.827 372.296 825.346" opacity=".8"/><path fill="#fff" d="M455.093 780.844C459.983 776.085 460.733 768.923 456.767 764.847C452.801 760.772 445.621 761.326 440.731 766.085C435.84 770.844 435.09 778.006 439.056 782.082C443.022 786.157 450.202 785.603 455.093 780.844Z" opacity=".4"/><path fill="#2F2E41" d="M662.848 411.886H676.428C685.338 411.886 693.882 415.425 700.182 421.725C706.482 428.024 710.021 436.569 710.021 445.478V492.651H629.256V445.478C629.256 441.067 630.125 436.698 631.813 432.623C633.501 428.547 635.975 424.844 639.095 421.725C642.214 418.605 645.917 416.131 649.993 414.443C654.069 412.755 658.437 411.886 662.848 411.886Z"/><path fill="#FFB9B9" d="M624.303 622.183L614.11 643.612C614.11 643.612 605.802 672.4 615.216 675.478C624.629 678.555 626.467 645.936 626.467 645.936L634.264 624.336L624.303 622.183Z"/><path fill="#000" d="M624.303 622.183L614.11 643.612C614.11 643.612 605.802 672.4 615.216 675.478C624.629 678.555 626.467 645.936 626.467 645.936L634.264 624.336L624.303 622.183Z" opacity=".1"/><path fill="#575A89" d="M626.233 588.643L613.342 633.76L633.753 644.502V590.791L626.233 588.643Z"/><path fill="#FFB9B9" d="M661.145 468.868C661.145 468.868 660.07 486.055 657.922 486.055C655.773 486.055 651.477 506.465 651.477 506.465L669.738 518.282L692.297 497.871L685.852 481.758C685.852 481.758 682.629 475.313 683.703 468.868C684.777 462.422 661.145 468.868 661.145 468.868Z"/><path fill="#000" d="M661.145 468.868C661.145 468.868 660.07 486.055 657.922 486.055C655.773 486.055 651.477 506.465 651.477 506.465L669.738 518.282L692.297 497.871L685.852 481.758C685.852 481.758 682.629 475.313 683.703 468.868C684.777 462.422 661.145 468.868 661.145 468.868Z" opacity=".1"/><path fill="#FFB9B9" d="M728.82 639.668L730.969 663.301C730.969 663.301 738.488 692.305 748.156 690.156C757.824 688.008 742.785 659.004 742.785 659.004L738.488 636.445L728.82 639.668Z"/><path fill="#FFB9B9" d="M682.629 872.774C682.629 872.774 689.074 912.52 684.777 920.039C680.48 927.559 689.074 928.633 689.074 928.633L714.856 922.188V910.372C714.856 910.372 706.262 871.7 706.262 869.551C706.262 867.403 682.629 872.774 682.629 872.774Z"/><path fill="#2F2E41" d="M629.992 694.453C629.992 694.453 637.512 771.797 649.328 796.504C661.145 821.211 671.887 888.887 677.258 889.961C682.629 891.035 723.449 883.516 728.82 879.219C734.191 874.922 692.297 770.723 692.297 769.648C692.297 768.574 682.629 672.969 682.629 672.969L669.738 651.484L629.992 694.453Z"/><path fill="#000" d="M629.992 694.453C629.992 694.453 637.512 771.797 649.328 796.504C661.145 821.211 671.887 888.887 677.258 889.961C682.629 891.035 723.449 883.516 728.82 879.219C734.191 874.922 692.297 770.723 692.297 769.648C692.297 768.574 682.629 672.969 682.629 672.969L669.738 651.484L629.992 694.453Z" opacity=".1"/><path fill="#2F2E41" d="M692.296 917.891C692.296 917.891 681.554 912.52 679.406 915.743L670.812 928.633C670.812 928.633 634.289 945.821 647.179 947.969C660.07 950.118 684.777 950.118 688 947.969C691.222 945.821 726.671 926.485 725.597 925.411C724.523 924.337 715.929 901.778 714.855 903.926C713.781 906.075 698.742 922.188 692.296 917.891Z"/><path fill="#FFB9B9" d="M511.828 826.582C511.828 826.582 487.121 843.77 475.304 840.547C463.488 837.324 475.304 864.18 475.304 864.18L496.789 875.996L503.234 870.625C503.234 870.625 525.793 840.547 535.461 839.473C545.129 838.398 511.828 826.582 511.828 826.582Z"/><path fill="#2F2E41" d="M623.546 630L627.843 652.559L547.276 775.02C547.276 775.02 498.936 823.359 503.233 828.731C507.53 834.102 534.386 865.254 540.831 860.957C547.276 856.66 696.593 695.527 695.519 674.043C694.444 652.559 658.995 611.738 658.995 611.738L623.546 627.852V630Z"/><path fill="#2F2E41" d="M480.676 848.066C480.676 848.066 490.344 837.324 484.973 836.25C478.932 835.185 472.835 834.468 466.711 834.101C464.563 834.101 435.559 819.062 433.411 824.433C431.262 829.805 446.301 857.734 454.895 860.957C463.489 864.18 494.641 886.738 494.641 886.738C494.641 886.738 510.754 872.773 508.606 869.551C506.458 866.328 476.379 859.883 480.676 848.066Z"/><path fill="#FFB9B9" d="M669.738 479.609C683.977 479.609 695.52 468.067 695.52 453.828C695.52 439.59 683.977 428.047 669.738 428.047C655.5 428.047 643.957 439.59 643.957 453.828C643.957 468.067 655.5 479.609 669.738 479.609Z"/><path fill="#D0CDE1" d="M675.109 492.5C675.109 492.5 656.847 493.574 651.476 490.352C646.105 487.129 634.288 534.395 634.288 534.395L626.769 596.699C626.769 596.699 625.695 604.219 626.769 608.516C627.843 612.813 616.027 606.367 620.324 618.184C624.62 630 617.101 635.371 624.621 636.445C632.14 637.52 671.886 621.406 671.886 621.406L690.148 525.801L695.519 487.129L675.109 492.5Z"/><path fill="#575A89" d="M659.224 483.774C659.224 483.774 649.328 481.758 646.105 483.907C642.883 486.055 631.066 502.168 631.066 506.465C631.066 510.762 626.77 558.028 626.77 562.325C626.77 566.621 623.547 589.18 623.547 591.329C623.547 593.477 626.302 602.711 626.302 602.711L633.215 590.254C633.215 590.254 631.066 574.141 638.586 548.36C646.105 522.578 659.224 483.774 659.224 483.774Z"/><path fill="#575A89" d="M669.739 500.019C669.739 500.019 684.09 477.461 684.971 479.609C685.852 481.758 701.966 484.98 701.966 484.98C701.966 484.98 730.97 505.39 728.821 513.984C726.673 522.578 711.634 587.031 711.634 587.031C711.634 587.031 697.669 620.332 708.411 643.965C719.153 667.597 706.263 676.191 706.263 676.191C706.263 676.191 697.669 680.488 699.817 684.785C701.966 689.082 675.11 705.195 671.888 693.379C668.665 681.562 628.919 610.664 637.513 584.883C646.106 559.101 669.739 500.019 669.739 500.019Z"/><path fill="#575A89" d="M723.449 510.762C723.449 510.762 735.266 533.32 733.117 536.543C730.969 539.766 740.637 559.102 740.637 559.102C739.968 560.829 739.968 562.745 740.637 564.473C741.711 567.695 748.156 581.66 748.156 587.031C748.156 592.402 747.082 609.59 748.156 617.109C749.231 624.629 763.195 642.891 751.379 643.965C739.562 645.039 720.227 654.707 721.301 643.965C722.375 633.223 725.598 607.441 721.301 603.145C717.004 598.848 713.781 598.848 715.93 593.477C718.078 588.105 706.262 574.141 706.262 574.141L723.449 510.762Z"/><path fill="#2F2E41" d="M691.28 447.477H650.504L641.271 426.259H698.205L691.28 447.477Z"/><path fill="#FFB9B9" d="M645.153 463.003C646.242 462.687 646.443 460.077 645.601 457.172C644.76 454.267 643.194 452.169 642.105 452.484C641.016 452.8 640.815 455.41 641.657 458.315C642.498 461.219 644.064 463.318 645.153 463.003Z"/><path fill="#FFB9B9" d="M696.935 458.315C697.777 455.411 697.576 452.8 696.487 452.485C695.398 452.169 693.832 454.268 692.991 457.172C692.149 460.077 692.35 462.688 693.439 463.003C694.528 463.319 696.094 461.22 696.935 458.315Z"/><path fill="#F2F2F2" d="M937.901 866.979C937.901 891.931 923.068 900.643 904.771 900.643C904.345 900.643 903.92 900.637 903.501 900.632C902.65 900.609 901.811 900.568 900.984 900.511C884.467 899.344 871.641 890.184 871.641 866.979C871.641 842.969 902.317 812.672 904.633 810.419C904.634 810.419 904.634 810.419 904.635 810.419C904.636 810.419 904.636 810.418 904.637 810.418C904.637 810.417 904.638 810.416 904.638 810.416C904.638 810.415 904.639 810.414 904.638 810.414C904.725 810.333 904.771 810.287 904.771 810.287C904.771 810.287 937.901 842.026 937.901 866.979Z"/><path fill="#3F3D56" d="M903.563 896.827L915.677 879.897L903.535 898.684L903.5 900.632C902.65 900.609 901.811 900.568 900.983 900.511L902.288 875.553L902.276 875.357L902.299 875.323L902.425 872.961L890.248 854.129L902.46 871.191L902.489 871.697L903.477 852.836L893.052 833.372L903.604 849.52L904.632 810.419L904.638 810.287V810.414L904.466 841.251L914.844 829.027L904.42 843.906L904.149 860.795L913.838 844.589L904.109 863.278L903.954 872.668L918.022 850.112L903.902 875.944L903.563 896.827Z"/><path fill="#E6E6E6" d="M662.76 490.01C662.716 490.01 662.671 490.008 662.626 490.006C662.232 489.987 661.847 489.885 661.496 489.705C661.146 489.525 660.839 489.273 660.597 488.965L657.099 484.526C656.878 484.246 656.715 483.925 656.62 483.583C656.524 483.241 656.498 482.883 656.543 482.531C656.587 482.178 656.702 481.838 656.879 481.53C657.057 481.221 657.295 480.95 657.579 480.732L657.705 480.635C657.989 480.417 658.313 480.256 658.66 480.162C659.007 480.068 659.369 480.042 659.727 480.086C660.084 480.13 660.428 480.243 660.741 480.419C661.054 480.594 661.328 480.829 661.549 481.109C661.726 481.333 661.949 481.517 662.205 481.648C662.46 481.779 662.741 481.853 663.028 481.867C663.315 481.881 663.602 481.833 663.869 481.728C664.136 481.622 664.376 481.461 664.574 481.255L671.677 473.853C672.177 473.333 672.866 473.03 673.592 473.011C674.318 472.991 675.022 473.257 675.55 473.749L675.666 473.859C675.927 474.103 676.137 474.395 676.284 474.72C676.43 475.044 676.511 475.393 676.52 475.748C676.53 476.103 676.469 476.457 676.34 476.788C676.212 477.12 676.018 477.423 675.771 477.681L664.748 489.165C664.492 489.432 664.184 489.645 663.842 489.79C663.5 489.935 663.132 490.01 662.76 490.01Z"/><path fill="#E6E6E6" d="M652.467 425.241C647.597 428.436 642.612 420.832 647.576 417.778C652.446 414.583 657.431 422.188 652.467 425.241Z"/><path fill="#FF883E" d="M532.772 881.606L550.611 863.768L523.853 837.009L506.014 854.848L532.772 881.606Z"/><path fill="#FFCD42" d="M328.699 576L327.99 601.218L365.817 602.282L366.526 577.064L328.699 576Z"/><path fill="#FFCD42" d="M292.699 387L291.99 412.218L329.817 413.282L330.526 388.064L292.699 387Z"/><path fill="#63AD44" d="M228.746 239.397L239.289 256.393L271.446 236.443L260.902 219.448L228.746 239.397Z"/><path fill="#FE0808" d="M288.199 676L262.99 676.991L264.476 714.804L289.685 713.813L288.199 676Z"/><path fill="#1190F4" d="M72.9897 550.681L75.4434 575.789L113.106 572.109L110.652 547L72.9897 550.681Z"/><path fill="#FFC033" d="M78.9897 683.681L81.4434 708.789L119.106 705.109L116.652 680L78.9897 683.681Z"/><path fill="#FFC033" d="M1208.42 317.806L1189.19 334.13L1213.67 362.982L1232.91 346.659L1208.42 317.806Z"/><path fill="#FFC033" d="M1156.37 708.709L1132.05 702L1121.99 738.479L1146.31 745.188L1156.37 708.709Z"/><path fill="#63AD44" d="M1154.41 845L1133.99 859.809L1156.2 890.446L1176.63 875.637L1154.41 845Z"/><path fill="#F33" d="M1004.58 941.131L1029.29 936.074L1021.71 899L996.989 904.058L1004.58 941.131Z"/><path fill="#63AD44" d="M133.99 840.681L136.443 865.789L174.106 862.109L171.652 837L133.99 840.681Z"/><path fill="#63AD44" d="M67.177 275.614L92.3926 274.823L91.2064 237L65.9908 237.791L67.177 275.614Z"/><path fill="#FF1212" d="M116.99 386.503L117.992 411.711L155.804 410.208L154.802 385L116.99 386.503Z"/><path fill="#FF1313" d="M393.99 150.252L395.492 175.436L433.267 173.183L431.765 148L393.99 150.252Z"/><path fill="#FF1313" d="M686.169 127.113L661.586 121.447L653.088 158.323L677.671 163.988L686.169 127.113Z"/><path fill="#A038F2" d="M915.99 187.252L917.492 212.436L955.267 210.183L953.765 185L915.99 187.252Z"/><path fill="#10744A" d="M1081.58 114.763L1056.63 111L1050.99 148.418L1075.94 152.182L1081.58 114.763Z"/><path fill="#FF883E" d="M829.58 15.7633L804.635 12L798.99 49.4185L823.936 53.1818L829.58 15.7633Z"/><path fill="#FF883E" d="M487.99 48.2524L489.492 73.4355L527.267 71.1828L525.765 45.9996L487.99 48.2524Z"/><path fill="#FFC033" d="M232.249 84.4058L257.426 82.7939L255.008 45.0294L229.832 46.6412L232.249 84.4058Z"/><path fill="#FF883E" d="M961.99 714.252L963.492 739.436L1001.27 737.183L999.765 712L961.99 714.252Z"/><path fill="#10744A" d="M1238.51 598.365L1262.75 591.349L1252.22 555L1227.99 562.016L1238.51 598.365Z"/><path fill="#63AD44" d="M31.7373 435.704C32.997 432.705 30.6928 429.851 28.8415 427.557C27.2834 425.627 26.1571 424.231 26.8973 422.469C27.6373 420.707 29.4213 420.534 31.8909 420.295C34.8251 420.011 38.4765 419.658 39.736 416.659C40.9955 413.66 38.6915 410.805 36.8402 408.512C35.282 406.581 34.1557 405.186 34.8959 403.424C35.636 401.661 37.42 401.488 39.8897 401.25C40.6251 401.179 41.1394 400.937 41.3154 400.518C41.7832 399.404 39.6863 397.462 36.6319 396.179C34.7194 395.376 32.8856 395.022 31.6665 395.143C28.735 395.427 25.0927 395.783 23.8349 398.778C22.5754 401.777 24.8795 404.632 26.7308 406.925C28.2889 408.856 29.4152 410.251 28.6751 412.013C27.935 413.776 26.151 413.949 23.681 414.187C20.7471 414.471 17.0958 414.825 15.8363 417.824C14.5767 420.823 16.8809 423.677 18.7321 425.971C20.2903 427.901 21.4166 429.296 20.6764 431.059C19.9362 432.821 18.1522 432.994 15.6821 433.233C12.7483 433.517 9.09686 433.871 7.8373 436.87C6.57769 439.869 8.8818 442.724 10.733 445.017C12.2912 446.948 13.4174 448.343 12.6771 450.106C11.937 451.868 10.1537 452.041 7.68509 452.28C6.94897 452.351 6.43364 452.592 6.25752 453.011C5.78976 454.125 7.88666 456.068 10.9411 457.351C12.8536 458.154 14.6881 458.508 15.9069 458.387C18.8382 458.103 22.4803 457.746 23.7381 454.751C24.9977 451.752 22.6936 448.897 20.8424 446.604C19.2843 444.673 18.158 443.278 18.8983 441.515C19.6385 439.753 21.4229 439.58 23.8926 439.341C26.8264 439.057 30.4777 438.704 31.7373 435.704Z"/><path fill="#FFCD42" d="M355.678 46.8101C356.339 49.9953 359.855 51.0428 362.679 51.8846C365.057 52.5932 366.775 53.105 367.163 54.9767C367.551 56.8482 366.179 58.0009 364.279 59.5965C362.022 61.4924 359.212 63.8516 359.873 67.0366C360.533 70.2216 364.049 71.2693 366.874 72.1112C369.251 72.8197 370.97 73.3316 371.358 75.2031C371.746 77.0747 370.374 78.2277 368.473 79.8232C367.907 80.2979 367.62 80.7883 367.713 81.2335C367.958 82.4164 370.787 82.83 374.03 82.1573C376.061 81.736 377.773 80.9889 378.709 80.1989C380.965 78.3045 383.764 75.9477 383.105 72.7672C382.444 69.5821 378.929 68.5346 376.104 67.6928C373.726 66.9842 372.008 66.4724 371.62 64.6007C371.232 62.7292 372.604 61.5763 374.505 59.9807C376.762 58.0849 379.571 55.7256 378.91 52.5408C378.25 49.3556 374.734 48.3081 371.909 47.4663C369.532 46.7577 367.813 46.2458 367.425 44.3741C367.037 42.5024 368.41 41.3495 370.31 39.7536C372.567 37.8578 375.376 35.4985 374.716 32.3134C374.055 29.1281 370.539 28.0805 367.715 27.2386C365.337 26.53 363.619 26.018 363.23 24.1459C362.842 22.2744 364.214 21.1217 366.113 19.5266C366.68 19.0516 366.968 18.5609 366.876 18.1155C366.63 16.9327 363.802 16.5191 360.558 17.1918C358.527 17.613 356.814 18.3604 355.879 19.1504C353.623 21.0445 350.824 23.4014 351.483 26.582C352.144 29.7674 355.66 30.815 358.484 31.6569C360.862 32.3655 362.58 32.8775 362.969 34.7494C363.357 36.6213 361.984 37.7742 360.084 39.3701C357.827 41.2656 355.018 43.6248 355.678 46.8101Z"/><path fill="#7B61FF" d="M900.678 31.8101C901.339 34.9953 904.855 36.0428 907.679 36.8846C910.057 37.5932 911.775 38.105 912.163 39.9767C912.551 41.8482 911.179 43.0009 909.279 44.5965C907.022 46.4924 904.212 48.8516 904.873 52.0366C905.533 55.2216 909.049 56.2693 911.874 57.1112C914.251 57.8197 915.97 58.3316 916.358 60.2031C916.746 62.0747 915.374 63.2277 913.473 64.8232C912.907 65.2979 912.62 65.7883 912.713 66.2335C912.958 67.4164 915.787 67.83 919.03 67.1573C921.061 66.736 922.773 65.9889 923.709 65.1989C925.965 63.3045 928.764 60.9477 928.105 57.7672C927.444 54.5821 923.929 53.5346 921.104 52.6928C918.726 51.9842 917.008 51.4724 916.62 49.6007C916.232 47.7292 917.604 46.5763 919.505 44.9807C921.762 43.0849 924.571 40.7256 923.91 37.5408C923.25 34.3556 919.734 33.3081 916.909 32.4663C914.532 31.7577 912.813 31.2458 912.425 29.3741C912.037 27.5024 913.41 26.3495 915.31 24.7536C917.567 22.8578 920.376 20.4985 919.716 17.3134C919.055 14.1281 915.539 13.0805 912.715 12.2386C910.337 11.53 908.619 11.018 908.23 9.14595C907.842 7.27438 909.214 6.12175 911.113 4.52663C911.68 4.05164 911.968 3.56087 911.876 3.1155C911.63 1.93267 908.802 1.51912 905.558 2.19182C903.527 2.61304 901.814 3.3604 900.879 4.15043C898.623 6.0445 895.824 8.40136 896.483 11.582C897.144 14.7674 900.66 15.815 903.484 16.6569C905.862 17.3655 907.58 17.8775 907.969 19.7494C908.357 21.6213 906.984 22.7742 905.084 24.3701C902.827 26.2656 900.018 28.6248 900.678 31.8101Z"/><path fill="#5DADEC" d="M1087.68 598.81C1088.34 601.995 1091.85 603.043 1094.68 603.885C1097.06 604.593 1098.78 605.105 1099.16 606.977C1099.55 608.848 1098.18 610.001 1096.28 611.597C1094.02 613.492 1091.21 615.852 1091.87 619.037C1092.53 622.222 1096.05 623.269 1098.87 624.111C1101.25 624.82 1102.97 625.332 1103.36 627.203C1103.75 629.075 1102.37 630.228 1100.47 631.823C1099.91 632.298 1099.62 632.788 1099.71 633.233C1099.96 634.416 1102.79 634.83 1106.03 634.157C1108.06 633.736 1109.77 632.989 1110.71 632.199C1112.96 630.305 1115.76 627.948 1115.1 624.767C1114.44 621.582 1110.93 620.535 1108.1 619.693C1105.73 618.984 1104.01 618.472 1103.62 616.601C1103.23 614.729 1104.6 613.576 1106.5 611.981C1108.76 610.085 1111.57 607.726 1110.91 604.541C1110.25 601.356 1106.73 600.308 1103.91 599.466C1101.53 598.758 1099.81 598.246 1099.43 596.374C1099.04 594.502 1100.41 593.35 1102.31 591.754C1104.57 589.858 1107.38 587.498 1106.72 584.313C1106.06 581.128 1102.54 580.081 1099.71 579.239C1097.34 578.53 1095.62 578.018 1095.23 576.146C1094.84 574.274 1096.21 573.122 1098.11 571.527C1098.68 571.052 1098.97 570.561 1098.88 570.116C1098.63 568.933 1095.8 568.519 1092.56 569.192C1090.53 569.613 1088.81 570.36 1087.88 571.15C1085.62 573.045 1082.82 575.401 1083.48 578.582C1084.14 581.767 1087.66 582.815 1090.48 583.657C1092.86 584.366 1094.58 584.877 1094.97 586.749C1095.36 588.621 1093.98 589.774 1092.08 591.37C1089.83 593.266 1087.02 595.625 1087.68 598.81Z"/></svg>