<svg xmlns="http://www.w3.org/2000/svg" width="953" height="787" fill="none" viewBox="0 0 953 787"><path fill="#F2F2F2" d="M655.726 367.729C614.099 204.043 470.265 85.8845 301.435 81.1452C212.18 78.6397 118.258 108.242 49.8768 211.83C-72.3629 397.005 57.3887 524.966 147.848 585.771C191.551 615.207 230.93 650.6 264.844 690.927C325.946 763.434 443.493 853.535 583.486 712.361C684.954 610.037 683.453 476.76 655.726 367.729Z"/><path fill="#CFD9E0" d="M773.91 708.29C773.91 740.552 622.188 766.706 435.028 766.706C247.869 766.706 113.91 682.136 113.91 649.874C113.91 617.612 247.869 649.874 435.028 649.874C622.188 649.874 773.91 676.028 773.91 708.29Z"/><path fill="#200E32" d="M762.693 220.834C750.401 244.693 711.442 272.806 687.584 260.514C663.725 248.222 664.002 200.179 676.294 176.321C682.198 164.866 692.411 156.225 704.685 152.299C716.959 148.373 730.291 149.484 741.746 155.386C753.202 161.288 761.845 171.499 765.773 183.772C769.701 196.046 768.593 209.377 762.693 220.834Z" opacity=".7"/><path fill="#fff" d="M755.944 194.305C759.054 188.268 757.497 181.274 752.466 178.682C747.436 176.091 740.837 178.883 737.727 184.92C734.617 190.956 736.174 197.951 741.204 200.542C746.234 203.134 752.834 200.341 755.944 194.305Z" opacity=".4"/><path fill="#FFCD42" d="M770.347 367.186C743.435 394.336 678.475 415.851 651.325 388.939C624.175 362.027 645.117 296.88 672.029 269.73C684.954 256.7 702.525 249.336 720.878 249.258C739.231 249.181 756.864 256.395 769.899 269.316C782.934 282.236 790.303 299.805 790.387 318.158C790.471 336.511 783.263 354.146 770.347 367.186Z"/><path fill="#FFCD42" d="M651.365 398.375C650.963 396.016 649.833 393.842 648.134 392.158C646.435 390.473 644.251 389.363 641.889 388.981L651.282 379.505L660.758 388.898L651.365 398.375Z"/><path stroke="#2F2E41" stroke-miterlimit="10" stroke-width="2" d="M649.515 391.229L560.279 481.254"/><path fill="#FFCD42" d="M350.533 231C378.914 256.61 403.447 320.492 377.836 348.872C352.226 377.253 286.169 359.384 257.789 333.774C244.167 321.473 235.989 304.266 235.052 285.937C234.115 267.607 240.496 249.656 252.792 236.03C265.088 222.405 282.292 214.221 300.621 213.277C318.95 212.334 336.904 218.709 350.533 231Z"/><path stroke="#2F2E41" stroke-miterlimit="10" stroke-width="2" d="M380.208 350.573L474.313 435.495"/><path fill="#FFCD42" d="M431.525 219.732C464.643 249.803 493.286 324.796 463.417 358.1C433.549 391.405 356.479 370.409 323.362 340.337C307.466 325.894 297.92 305.694 296.82 284.178C295.721 262.663 303.159 241.594 317.499 225.604C331.839 209.614 351.907 200.013 373.29 198.912C394.673 197.811 415.62 205.3 431.525 219.732Z"/><path stroke="#2F2E41" stroke-miterlimit="10" stroke-width="2" d="M466.185 360.098L575.999 459.811"/><path fill="#fff" d="M386.042 219.296C377.663 211.687 365.765 211.212 359.467 218.234C353.17 225.256 354.857 237.116 363.236 244.725C371.616 252.333 383.513 252.809 389.811 245.787C396.109 238.765 394.421 226.904 386.042 219.296Z" opacity=".4"/><path fill="#200E32" d="M606.168 110.29C612.588 154.561 586.976 230.642 542.744 237.335C498.512 244.028 452.408 178.798 445.988 134.527C442.913 113.272 448.399 91.613 461.239 74.3138C474.079 57.0146 493.221 45.4914 514.458 42.2781C535.694 39.0648 557.285 44.4245 574.483 57.1786C591.681 69.9326 603.078 89.0369 606.168 110.29Z"/><path fill="#FFCD42" d="M551.583 243.897C549.098 242.625 546.273 242.167 543.504 242.586C540.736 243.004 538.162 244.28 536.144 246.233L533.904 230.78L549.343 228.444L551.583 243.897Z"/><path stroke="#2F2E41" stroke-miterlimit="10" stroke-width="2" d="M543.608 240.636L576.17 465.173"/><path fill="#fff" d="M571.351 81.0168C569.727 69.8159 560.85 61.8797 551.524 63.2909C542.198 64.702 535.954 74.9261 537.578 86.1271C539.203 97.328 548.08 105.264 557.406 103.853C566.732 102.442 572.976 92.2178 571.351 81.0168Z" opacity=".4"/><path fill="#200E32" d="M456.116 66.7283C482.911 111.823 489.251 205.743 444.32 232.816C399.388 259.89 320.199 209.865 293.404 164.77C280.548 143.115 276.786 117.187 282.948 92.6882C289.109 68.189 304.689 47.1242 326.261 34.126C347.833 21.1278 373.631 17.2603 397.982 23.3741C422.333 29.4879 443.244 45.0824 456.116 66.7283Z"/><path fill="#FFCD42" d="M456.837 235.966C453.574 235.702 450.308 236.471 447.495 238.166C444.683 239.86 442.466 242.395 441.154 245.416L431.802 229.676L447.485 220.226L456.837 235.966Z"/><path stroke="#2F2E41" stroke-miterlimit="10" stroke-width="2" d="M446.735 236.007L582.636 464.726"/><path fill="#fff" d="M405.27 50.609C398.49 39.1994 385.315 34.5776 375.841 40.2859C366.368 45.9942 364.184 59.8709 370.963 71.2805C377.742 82.6901 390.918 87.312 400.392 81.6037C409.865 75.8954 412.049 62.0186 405.27 50.609Z" opacity=".4"/><path fill="#06F" d="M924.392 238.691C887.867 276.34 798.87 307.007 760.994 270.713C723.118 234.42 750.707 144.909 787.231 107.259C804.773 89.1895 828.817 78.7825 854.075 78.3266C879.333 77.8707 903.737 87.4033 921.922 104.828C940.106 122.253 950.582 146.144 951.045 171.246C951.508 196.349 941.921 220.609 924.392 238.691Z"/><path fill="#FFCD42" d="M761.226 283.62C760.628 280.401 759.032 277.449 756.661 275.177C754.29 272.906 751.264 271.428 748.006 270.952L760.754 257.81L773.975 270.478L761.226 283.62Z"/><path stroke="#2F2E41" stroke-miterlimit="10" stroke-width="2" d="M758.544 273.879L573.295 464.834"/><path fill="#FFCD42" d="M686.232 279.231C677.364 316.416 633.066 368.574 595.881 359.706C558.697 350.839 542.706 284.303 551.573 247.118C555.842 229.272 567.022 213.851 582.656 204.245C598.291 194.639 617.1 191.634 634.949 195.89C652.798 200.147 668.226 211.317 677.842 226.945C687.459 242.572 690.476 261.379 686.232 279.231Z"/><path fill="#63AD44" d="M600.825 367.743C599.255 365.938 597.159 364.668 594.832 364.113C592.504 363.558 590.062 363.745 587.846 364.648L590.941 351.669L603.92 354.764L600.825 367.743Z"/><path fill="#fff" d="M667.857 244.842C670.1 235.434 665.564 226.291 657.723 224.422C649.883 222.552 641.709 228.663 639.465 238.071C637.221 247.48 641.758 256.622 649.598 258.492C657.438 260.362 665.613 254.251 667.857 244.842Z" opacity=".4"/><path stroke="#2F2E41" stroke-miterlimit="10" stroke-width="2" d="M595.676 362.586L566.271 485.886"/><path fill="#2F2E41" d="M483.858 208.887H497.438C506.347 208.887 514.892 212.426 521.191 218.726C527.491 225.025 531.03 233.57 531.03 242.479V289.652H450.266V242.479C450.266 238.068 451.135 233.699 452.823 229.624C454.511 225.548 456.985 221.845 460.105 218.726C463.224 215.606 466.927 213.132 471.003 211.444C475.078 209.756 479.447 208.887 483.858 208.887Z"/><path fill="#000" d="M445.312 419.184L435.12 440.613C435.12 440.613 426.812 469.401 436.225 472.479C445.639 475.556 447.477 442.937 447.477 442.937L455.273 421.337L445.312 419.184Z" opacity=".1"/><path fill="#575A89" d="M447.243 385.644L434.352 430.761L454.763 441.503V387.792L447.243 385.644Z"/><path fill="#FFB9B9" d="M549.83 436.669L551.979 460.302C551.979 460.302 559.498 489.306 569.166 487.157C578.834 485.009 563.795 456.005 563.795 456.005L559.498 433.446L549.83 436.669Z"/><path fill="#FFB9B9" d="M503.639 669.775C503.639 669.775 510.084 709.521 505.787 717.04C501.49 724.56 510.084 725.634 510.084 725.634L535.865 719.189V707.373C535.865 707.373 527.271 668.701 527.271 666.552C527.271 664.404 503.639 669.775 503.639 669.775Z"/><path fill="#000" d="M451.002 491.454C451.002 491.454 458.522 568.798 470.338 593.505C482.154 618.212 492.897 685.888 498.268 686.962C503.639 688.036 544.459 680.517 549.83 676.22C555.201 671.923 513.307 567.724 513.307 566.649C513.307 565.575 503.639 469.97 503.639 469.97L490.748 448.485L451.002 491.454Z" opacity=".1"/><path fill="#2F2E41" d="M513.306 714.892C513.306 714.892 502.564 709.521 500.416 712.744L491.822 725.634C491.822 725.634 455.298 742.822 468.189 744.97C481.08 747.119 505.787 747.119 509.009 744.97C512.232 742.822 547.681 723.486 546.607 722.412C545.533 721.338 536.939 698.779 535.865 700.927C534.791 703.076 519.751 719.189 513.306 714.892Z"/><path fill="#FFB9B9" d="M332.838 623.582C332.838 623.582 308.131 640.77 296.314 637.547C284.498 634.324 296.314 661.18 296.314 661.18L317.799 672.996L324.244 667.625C324.244 667.625 346.803 637.547 356.471 636.473C366.139 635.398 332.838 623.582 332.838 623.582Z"/><path fill="#2F2E41" d="M444.556 427.001L448.852 449.56L368.286 572.021C368.286 572.021 319.946 620.36 324.243 625.732C328.54 631.103 355.395 662.255 361.841 657.958C368.286 653.661 517.603 492.528 516.528 471.044C515.454 449.56 480.005 408.739 480.005 408.739L444.556 424.853V427.001Z"/><path fill="#2F2E41" d="M301.686 645.067C301.686 645.067 311.354 634.325 305.983 633.251C299.942 632.186 293.845 631.469 287.721 631.102C285.573 631.102 256.569 616.063 254.42 621.434C252.272 626.806 267.311 654.735 275.905 657.958C284.499 661.181 315.651 683.739 315.651 683.739C315.651 683.739 331.764 669.774 329.616 666.552C327.467 663.329 297.389 656.884 301.686 645.067Z"/><path fill="#FFB9B9" d="M490.748 276.61C504.987 276.61 516.529 265.068 516.529 250.829C516.529 236.591 504.987 225.048 490.748 225.048C476.509 225.048 464.967 236.591 464.967 250.829C464.967 265.068 476.509 276.61 490.748 276.61Z"/><path fill="#D0CDE1" d="M496.119 289.501C496.119 289.501 477.857 290.575 472.486 287.353C467.115 284.13 455.298 331.396 455.298 331.396L447.779 393.7C447.779 393.7 446.705 401.22 447.779 405.517C448.853 409.814 437.036 403.368 441.333 415.185C445.63 427.001 438.111 432.372 445.63 433.446C453.15 434.521 492.896 418.407 492.896 418.407L511.158 322.802L516.529 284.13L496.119 289.501Z"/><path fill="#575A89" d="M480.234 280.775C480.234 280.775 470.338 278.759 467.115 280.908C463.893 283.056 452.076 299.169 452.076 303.466C452.076 307.763 447.779 355.029 447.779 359.326C447.779 363.622 444.557 386.181 444.557 388.33C444.557 390.478 447.312 399.712 447.312 399.712L454.225 387.255C454.225 387.255 452.076 371.142 459.596 345.361C467.115 319.579 480.234 280.775 480.234 280.775Z"/><path fill="#575A89" d="M490.749 297.02C490.749 297.02 505.099 274.462 505.981 276.61C506.862 278.759 522.975 281.981 522.975 281.981C522.975 281.981 551.979 302.391 549.831 310.985C547.683 319.579 532.643 384.032 532.643 384.032C532.643 384.032 518.679 417.333 529.421 440.966C540.163 464.598 527.272 473.192 527.272 473.192C527.272 473.192 518.679 477.489 520.827 481.786C522.975 486.083 496.12 502.196 492.897 490.38C489.675 478.563 449.929 407.665 458.522 381.884C467.116 356.102 490.749 297.02 490.749 297.02Z"/><path fill="#575A89" d="M544.459 307.763C544.459 307.763 556.275 330.321 554.127 333.544C551.979 336.767 561.646 356.103 561.646 356.103C560.978 357.83 560.978 359.746 561.646 361.474C562.721 364.696 569.166 378.661 569.166 384.032C569.166 389.403 568.092 406.591 569.166 414.11C570.24 421.63 584.205 439.892 572.389 440.966C560.572 442.04 541.236 451.708 542.311 440.966C543.385 430.224 546.607 404.442 542.311 400.146C538.014 395.849 534.791 395.849 536.939 390.478C539.088 385.106 527.271 371.142 527.271 371.142L544.459 307.763Z"/><path fill="#2F2E41" d="M512.29 244.478H471.514L462.281 223.26H519.215L512.29 244.478Z"/><path fill="#E6E6E6" d="M483.77 287.011C483.725 287.011 483.681 287.009 483.636 287.007C483.242 286.988 482.856 286.886 482.506 286.706C482.156 286.526 481.849 286.274 481.607 285.966L478.109 281.527C477.888 281.247 477.725 280.926 477.629 280.584C477.534 280.242 477.508 279.884 477.552 279.532C477.597 279.179 477.711 278.839 477.889 278.531C478.067 278.222 478.305 277.951 478.589 277.733L478.715 277.636C478.998 277.418 479.323 277.257 479.67 277.163C480.017 277.069 480.379 277.043 480.736 277.087C481.093 277.131 481.438 277.244 481.751 277.42C482.064 277.595 482.338 277.83 482.559 278.11C482.736 278.334 482.959 278.518 483.214 278.649C483.47 278.78 483.75 278.854 484.038 278.868C484.325 278.882 484.612 278.834 484.879 278.729C485.146 278.623 485.386 278.462 485.584 278.256L492.687 270.854C493.187 270.334 493.875 270.031 494.601 270.012C495.327 269.992 496.031 270.258 496.559 270.75L496.676 270.86C496.937 271.104 497.147 271.396 497.293 271.721C497.44 272.045 497.521 272.394 497.53 272.749C497.54 273.104 497.479 273.458 497.35 273.789C497.221 274.121 497.028 274.424 496.78 274.682L485.758 286.166C485.502 286.433 485.194 286.646 484.852 286.791C484.51 286.936 484.142 287.011 483.77 287.011Z"/><path fill="#E6E6E6" d="M473.477 222.242C468.606 225.437 463.621 217.833 468.586 214.779C473.456 211.584 478.441 219.189 473.477 222.242Z"/></svg>