<svg xmlns="http://www.w3.org/2000/svg" xmlns:xlink="http://www.w3.org/1999/xlink" width="1600" height="1200" version="1.1" viewBox="0 0 1600 1200"><title>Linth</title><desc>Created with Sketch.</desc><defs><linearGradient id="linearGradient-1" x1="50%" x2="50%" y1="100%" y2="0%"><stop offset="0%" stop-color="#FFF"/><stop offset="100%" stop-color="#FAD961"/></linearGradient></defs><g id="Patterns" fill="none" fill-rule="evenodd" stroke="none" stroke-width="1"><g id="Linth" fill-rule="nonzero"><g id="Module"><g transform="translate(0.000000, -1.000000) translate(240.600000, 241.000000)"><circle id="Shape" cx="120" cy="120" r="120" fill="#D33367"/><circle id="Shape" cx="120.597" cy="120.597" r="70.448" fill="#2D374C"/><circle id="Shape" cx="120.597" cy="120.597" r="37.015" fill="#36868E"/></g><g transform="translate(0.000000, -1.000000) translate(720.000000, 241.000000)"><circle id="Shape" cx="120" cy="120" r="120" fill="#FF8B61"/><circle id="Shape" cx="120.597" cy="120.597" r="70.448" fill="#2D374C"/><circle id="Shape" cx="120.597" cy="120.597" r="37.015" fill="#F1E3CF"/></g><g transform="translate(0.000000, -1.000000) translate(1320.000000, 841.000000) scale(-1, 1) rotate(-180.000000) translate(-1320.000000, -841.000000) translate(1200.000000, 721.000000)"><circle id="Shape" cx="120" cy="120" r="120" fill="#FF8B61"/><circle id="Shape" cx="120.597" cy="120.597" r="70.448" fill="#2D374C"/><circle id="Shape" cx="120.597" cy="120.597" r="37.015" fill="#F1E3CF"/></g><g transform="translate(0.000000, -1.000000) translate(1080.000000, 361.000000) scale(-1, 1) rotate(-270.000000) translate(-1080.000000, -361.000000) translate(960.000000, 241.000000)"><path id="Shape" fill="#D33367" d="M180.737101,121.769042 C213.30426,121.769042 239.70516,148.169941 239.70516,180.737101 C239.70516,213.30426 213.30426,239.70516 180.737101,239.70516 C148.169941,239.70516 121.769042,213.30426 121.769042,180.737101 C121.769042,148.169941 148.169941,121.769042 180.737101,121.769042 Z"/><path id="Shape" fill="#FF8B61" d="M180.737101,0.294840295 C213.30426,0.294840295 239.70516,26.6957396 239.70516,59.2628993 C239.70516,91.830059 213.30426,118.230958 180.737101,118.230958 C148.169941,118.230958 121.769042,91.830059 121.769042,59.2628993 C121.769042,26.6957396 148.169941,0.294840295 180.737101,0.294840295 Z"/><path id="Shape" fill="#FF8B61" d="M61.6216216,121.769042 C94.1887813,121.769042 120.589681,148.169941 120.589681,180.737101 C120.589681,213.30426 94.1887813,239.70516 61.6216216,239.70516 C29.0544619,239.70516 2.65356265,213.30426 2.65356265,180.737101 C2.65356265,148.169941 29.0544619,121.769042 61.6216216,121.769042 Z"/><path id="Shape" fill="#36868E" d="M0,0 L60.1474201,0 C93.365923,0 120.29484,27.0609218 120.29484,60.4422604 C120.29484,93.8235991 93.365923,120.884521 60.1474201,120.884521 C26.9289173,120.884521 0,93.8235991 0,60.4422604 L0,0 Z"/></g><g transform="translate(0.000000, -1.000000) translate(1320.900000, 361.000000) scale(-1, 1) translate(-1320.900000, -361.000000) translate(1224.600000, 263.800000)"><rect id="Shape" width="122.654" height="122.654" x="35.578" y="36.168" fill="#F1E3CF"/><polygon id="Shape" fill="#36868E" points="60.416 60.416 135.19 60.416 135.19 135.19 60.416 135.19" transform="translate(97.803015, 97.803015) rotate(-315.000000) translate(-97.803015, -97.803015)"/><path id="Shape" fill="#D33367" d="M0.197542998,0.197542998 L72.7282555,0.197542998 C72.7282555,40.2551494 40.2551494,72.7282555 0.197542998,72.7282555 L0.197542998,0.197542998 Z"/><path id="Shape" fill="#D33367" d="M0.197542998,194.202457 L0.197542998,121.671744 C40.2551494,121.671744 72.7282555,154.144851 72.7282555,194.202457 L0.197542998,194.202457 Z"/><path id="Shape" fill="#D33367" d="M192.433415,194.202457 L119.902703,194.202457 C119.902703,154.144851 152.375809,121.671744 192.433415,121.671744 L192.433415,194.202457 Z"/><path id="Shape" fill="#D33367" d="M192.433415,0.197542998 L192.433415,72.7282555 C152.375809,72.7282555 119.902703,40.2551494 119.902703,0.197542998 L192.433415,0.197542998 Z"/></g><g transform="translate(0.000000, -1.000000) translate(1560.900000, 1080.700000) scale(-1, 1) translate(-1560.900000, -1080.700000) translate(1475.400000, 995.200000)"><g id="Shape" transform="translate(0.000000, -0.000000)"><polygon fill="#2D374C" points="25.346 25.435 145.778 25.479 145.822 145.911 25.39 145.867" transform="translate(85.583922, 85.673323) rotate(45.000000) translate(-85.583922, -85.673323)"/><polygon fill="#36868E" points="55.274 55.341 115.894 55.341 115.894 116.005 55.274 116.005"/></g></g><g transform="translate(0.000000, -1.000000) translate(1080.000000, 121.000000) scale(-1, 1) rotate(-180.000000) translate(-1080.000000, -121.000000) translate(960.000000, 1.000000)"><g id="Shape"><path fill="#F1E3CF" d="M120,1.03250741e-14 C186.27417,1.03250741e-14 240,53.72583 240,120 C240,186.27417 186.27417,240 120,240 L-2.84217094e-14,240 L-2.84217094e-14,120 C-2.84217094e-14,53.72583 53.72583,1.03250741e-14 120,1.03250741e-14 Z" transform="translate(0.000000, 0.000000)"/><path fill="#2D374C" d="M71.758794,96.4824121 C111.390082,96.4824121 143.517588,128.609918 143.517588,168.241206 C143.517588,207.872494 111.390082,240 71.758794,240 L0,240 L0,168.241206 C0,128.609918 32.1275064,96.4824121 71.758794,96.4824121 Z" transform="translate(0.000000, 0.000000)"/><path fill="#36868E" d="M120,45.5276382 C160.463878,45.5276382 193.266332,78.3300922 193.266332,118.79397 C193.266332,159.257848 160.463878,192.060302 120,192.060302 C79.5361223,192.060302 46.7336683,159.257848 46.7336683,118.79397 C46.7336683,78.3300922 79.5361223,45.5276382 120,45.5276382 Z" transform="translate(0.000000, 0.000000)"/><path fill="#2D374C" d="M120,75.9045226 C143.687188,75.9045226 162.889447,95.1067822 162.889447,118.79397 C162.889447,142.481157 143.687188,161.683417 120,161.683417 C96.3128124,161.683417 77.1105528,142.481157 77.1105528,118.79397 C77.1105528,95.1067822 96.3128124,75.9045226 120,75.9045226 Z" transform="translate(0.000000, 0.000000)"/></g></g><g transform="translate(0.000000, -1.000000) translate(1320.000000, 121.600000) scale(-1, 1) rotate(-270.000000) translate(-1320.000000, -121.600000) translate(1199.400000, 1.600000)"><g id="Shape"><path fill="#36868E" d="M120.603015,1.03250741e-14 L240,1.03250741e-14 L240,119.396985 C240,186.004191 186.004191,240 119.396985,240 L-2.84217094e-14,240 L-2.84217094e-14,120.603015 C-2.84217094e-14,53.9958091 53.9958091,1.03250741e-14 120.603015,1.03250741e-14 Z"/><path fill="#2D374C" d="M120,51.8592965 C158.965216,51.8592965 190.552764,83.4468448 190.552764,122.41206 C190.552764,161.377276 158.965216,192.964824 120,192.964824 L49.4472362,192.964824 L49.4472362,122.41206 C49.4472362,83.4468448 81.0347845,51.8592965 120,51.8592965 Z"/><path fill="#FF8B61" d="M192.603015,0 L240.603015,0 L240.603015,48 C240.603015,87.764502 208.367517,120 168.603015,120 L120.603015,120 L120.603015,72 C120.603015,32.235498 152.838513,0 192.603015,0 Z"/></g></g><g transform="translate(0.000000, -1.000000) translate(1560.000000, 121.600000) rotate(-270.000000) translate(-1560.000000, -121.600000) translate(1439.400000, 1.600000)"><g id="Shape"><path fill="#D33367" d="M120.603015,1.03250741e-14 L240,1.03250741e-14 L240,119.396985 C240,186.004191 186.004191,240 119.396985,240 L-2.84217094e-14,240 L-2.84217094e-14,120.603015 C-2.84217094e-14,53.9958091 53.9958091,1.03250741e-14 120.603015,1.03250741e-14 Z"/><path fill="#2D374C" d="M120,51.8592965 C158.965216,51.8592965 190.552764,83.4468448 190.552764,122.41206 C190.552764,161.377276 158.965216,192.964824 120,192.964824 L49.4472362,192.964824 L49.4472362,122.41206 C49.4472362,83.4468448 81.0347845,51.8592965 120,51.8592965 Z"/><path fill="#FF8B61" d="M192.603015,0 L240.603015,0 L240.603015,48 C240.603015,87.764502 208.367517,120 168.603015,120 L120.603015,120 L120.603015,72 C120.603015,32.235498 152.838513,0 192.603015,0 Z"/></g></g><g transform="translate(0.000000, -1.000000) translate(1560.000000, 841.000000) scale(-1, 1) translate(-1560.000000, -841.000000) translate(1440.000000, 721.000000)"><g id="Shape"><path fill="#F1E3CF" d="M120,1.03250741e-14 C186.27417,1.03250741e-14 240,53.72583 240,120 C240,186.27417 186.27417,240 120,240 L-2.84217094e-14,240 L-2.84217094e-14,120 C-2.84217094e-14,53.72583 53.72583,1.03250741e-14 120,1.03250741e-14 Z"/><path fill="#D33367" d="M71.758794,96.4824121 C111.390082,96.4824121 143.517588,128.609918 143.517588,168.241206 C143.517588,207.872494 111.390082,240 71.758794,240 L0,240 L0,168.241206 C-4.85343295e-15,128.609918 32.1275064,96.4824121 71.758794,96.4824121 Z" transform="translate(71.758794, 168.241206) rotate(-360.000000) translate(-71.758794, -168.241206)"/><path fill="#36868E" d="M120,45.5276382 C160.463878,45.5276382 193.266332,78.3300922 193.266332,118.79397 C193.266332,159.257848 160.463878,192.060302 120,192.060302 C79.5361223,192.060302 46.7336683,159.257848 46.7336683,118.79397 C46.7336683,78.3300922 79.5361223,45.5276382 120,45.5276382 Z"/><path fill="#2D374C" d="M120,75.9045226 C143.687188,75.9045226 162.889447,95.1067822 162.889447,118.79397 C162.889447,142.481157 143.687188,161.683417 120,161.683417 C96.3128124,161.683417 77.1105528,142.481157 77.1105528,118.79397 C77.1105528,95.1067822 96.3128124,75.9045226 120,75.9045226 Z"/></g></g><g transform="translate(0.000000, -1.000000) translate(240.000000, 481.000000)"><ellipse id="Shape" cx="120.295" cy="119.704" fill="#F1E3CF" rx="100.835" ry="100.788"/><path id="Shape" fill="#D33367" d="M240,0 C240,65.9476962 186.670183,119.408867 120.884521,119.408867 C120.884521,53.4611708 174.214337,0 240,0 Z"/><path id="Shape" fill="#36868E" d="M115.784245,0.14669394 L119.262173,0.14669394 L119.262173,3.61607683 C119.262173,67.4856522 67.3581238,119.262173 3.33123423,119.262173 L-0.14669394,119.262173 L-0.14669394,115.79279 C-0.14669394,51.9232148 51.7573553,0.14669394 115.784245,0.14669394 Z" transform="translate(59.557740, 59.704433) rotate(-270.000000) translate(-59.557740, -59.704433)"/><path id="Shape" fill="#D33367" d="M115.646096,120.591133 L119.115479,120.591133 L119.115479,124.069061 C119.115479,188.095951 67.3389582,240 3.46938289,240 L0,240 L0,236.522072 C0,172.495182 51.7765209,120.591133 115.646096,120.591133 Z"/><path id="Shape" fill="#36868E" d="M236.668766,120.737827 L240.146694,120.737827 L240.146694,124.20721 C240.146694,188.076785 188.242645,239.853306 124.215755,239.853306 L120.737827,239.853306 L120.737827,236.383923 C120.737827,172.514348 172.641876,120.737827 236.668766,120.737827 Z" transform="translate(180.442260, 180.295567) rotate(-270.000000) translate(-180.442260, -180.295567)"/></g><g transform="translate(0.000000, -1.000000) translate(960.000000, 481.000000)"><circle id="Shape" cx="120.035" cy="119.435" r="100.835" fill="#F1E3CF"/><path id="Shape" fill="#D33367" d="M116.504854,240 C52.161,240 0,187.839 0,123.495146 L0,120 L3.49514563,120 C67.839,120 120,172.161 120,236.504854 L120,240 L116.504854,240 Z"/><path id="Shape" fill="#36868E" d="M236.504854,120 L240,120 L240,123.495146 C240,187.839 187.839,240 123.495146,240 L120,240 L120,236.504854 C120,172.161 172.161,120 236.504854,120 Z"/><path id="Shape" fill="#D33367" d="M123.495146,120 L120,120 L120,116.504854 C120,52.161 172.161,0 236.504854,0 L240,0 L240,3.49514563 C240,67.839 187.839,120 123.495146,120 Z"/><path id="Shape" fill="#36868E" d="M3.49514563,0 C67.839,0 120,52.161 120,116.504854 L120,120 L116.504854,120 C52.161,120 0,67.839 0,3.49514563 L0,0 L3.49514563,0 Z"/></g><g transform="translate(0.000000, -1.000000) translate(120.000000, 841.000000) rotate(-270.000000) translate(-120.000000, -841.000000) translate(0.000000, 721.000000)"><circle id="Shape" cx="120.035" cy="119.435" r="100.835" fill="#F1E3CF"/><path id="Shape" fill="#D33367" d="M116.504854,240 C52.161,240 0,187.839 0,123.495146 L0,120 L3.49514563,120 C67.839,120 120,172.161 120,236.504854 L120,240 L116.504854,240 Z"/><path id="Shape" fill="#36868E" d="M236.504854,120 L240,120 L240,123.495146 C240,187.839 187.839,240 123.495146,240 L120,240 L120,236.504854 C120,172.161 172.161,120 236.504854,120 Z"/><path id="Shape" fill="#D33367" d="M123.495146,120 L120,120 L120,116.504854 C120,52.161 172.161,0 236.504854,0 L240,0 L240,3.49514563 C240,67.839 187.839,120 123.495146,120 Z"/><path id="Shape" fill="#36868E" d="M3.49514563,0 C67.839,0 120,52.161 120,116.504854 L120,120 L116.504854,120 C52.161,120 0,67.839 0,3.49514563 L0,0 L3.49514563,0 Z"/></g><g transform="translate(0.000000, -1.000000) translate(480.000000, 1.000000)"><path id="Shape" fill="#D33367" d="M240,0 L240,240 L0,240 C0,107.45166 107.45166,0 240,0 Z"/><path id="Shape" fill="#F1E3CF" d="M240,103.783784 L240,240 L103.448276,240 C103.448276,164.769861 164.584565,103.783784 240,103.783784 Z"/><path id="Shape" fill="#2D374C" d="M240,177.493857 L240,240 L177.339901,240 C177.339901,205.478811 205.393783,177.493857 240,177.493857 Z"/></g><g transform="translate(0.000000, -1.000000) translate(1560.000000, 601.000000) rotate(-270.000000) translate(-1560.000000, -601.000000) translate(1440.000000, 481.000000)"><path id="Shape" fill="#D33367" d="M240,0 L240,240 L0,240 C0,107.45166 107.45166,0 240,0 Z"/><path id="Shape" fill="#F1E3CF" d="M240,103.783784 L240,240 L103.448276,240 C103.448276,164.769861 164.584565,103.783784 240,103.783784 Z"/><path id="Shape" fill="#2D374C" d="M240,177.493857 L240,240 L177.339901,240 C177.339901,205.478811 205.393783,177.493857 240,177.493857 Z"/></g><g transform="translate(0.000000, -1.000000) translate(120.000000, 601.000000) rotate(-180.000000) translate(-120.000000, -601.000000) translate(0.000000, 481.000000)"><path id="Shape" fill="#36868E" d="M240,0 L240,240 L0,240 C0,107.45166 107.45166,0 240,0 Z"/><path id="Shape" fill="#F1E3CF" d="M240,103.448276 L240,240 L103.783784,240 C103.783784,164.584565 164.769861,103.448276 240,103.448276 Z"/><path id="Shape" fill="#2D374C" d="M240,177.339901 L240,240 L177.493857,240 C177.493857,205.393783 205.478811,177.339901 240,177.339901 Z"/></g><g transform="translate(0.000000, -1.000000) translate(1320.000000, 601.000000) rotate(-360.000000) translate(-1320.000000, -601.000000) translate(1200.000000, 481.000000)"><path id="Shape" fill="#36868E" d="M240,0 L240,240 L0,240 C0,107.45166 107.45166,0 240,0 Z"/><path id="Shape" fill="#F1E3CF" d="M240,103.448276 L240,240 L103.783784,240 C103.783784,164.584565 164.769861,103.448276 240,103.448276 Z"/><path id="Shape" fill="#2D374C" d="M240,177.339901 L240,240 L177.493857,240 C177.493857,205.393783 205.478811,177.339901 240,177.339901 Z"/></g><g transform="translate(0.000000, -1.000000) translate(120.600000, 121.000000) rotate(-360.000000) translate(-120.600000, -121.000000) translate(0.600000, 1.000000)"><path id="Shape" fill="#36868E" d="M120,0 C186.27417,0 240,53.72583 240,120 C240,186.27417 186.27417,240 120,240 C53.72583,240 0,186.27417 0,120 C0,53.72583 53.72583,0 120,0 Z"/><path id="Shape" fill="#F1E3CF" d="M120.589681,48.3538084 C160.484451,48.3538084 192.825553,80.69491 192.825553,120.589681 C192.825553,160.484451 160.484451,192.825553 120.589681,192.825553 C80.69491,192.825553 48.3538084,160.484451 48.3538084,120.589681 C48.3538084,80.69491 80.69491,48.3538084 120.589681,48.3538084 Z"/><path id="Shape" fill="#2D374C" d="M121.769042,83.1449631 C143.100531,83.1449631 160.39312,100.437552 160.39312,121.769042 C160.39312,143.100531 143.100531,160.39312 121.769042,160.39312 C100.437552,160.39312 83.1449631,143.100531 83.1449631,121.769042 C83.1449631,100.437552 100.437552,83.1449631 121.769042,83.1449631 Z"/><path id="Shape" fill="#D33367" d="M240,94.3488943 L240,240 L94.3488943,240 C94.3488943,159.559116 159.559116,94.3488943 240,94.3488943 Z"/></g><g transform="translate(0.000000, -1.000000) translate(1320.000000, 1081.000000) rotate(-360.000000) translate(-1320.000000, -1081.000000) translate(1200.000000, 961.000000)"><path id="Shape" fill="#36868E" d="M120,0 C186.27417,0 240,53.72583 240,120 C240,186.27417 186.27417,240 120,240 C53.72583,240 0,186.27417 0,120 C0,53.72583 53.72583,0 120,0 Z"/><path id="Shape" fill="#F1E3CF" d="M120.589681,48.3538084 C160.484451,48.3538084 192.825553,80.69491 192.825553,120.589681 C192.825553,160.484451 160.484451,192.825553 120.589681,192.825553 C80.69491,192.825553 48.3538084,160.484451 48.3538084,120.589681 C48.3538084,80.69491 80.69491,48.3538084 120.589681,48.3538084 Z"/><path id="Shape" fill="#2D374C" d="M121.769042,83.1449631 C143.100531,83.1449631 160.39312,100.437552 160.39312,121.769042 C160.39312,143.100531 143.100531,160.39312 121.769042,160.39312 C100.437552,160.39312 83.1449631,143.100531 83.1449631,121.769042 C83.1449631,100.437552 100.437552,83.1449631 121.769042,83.1449631 Z"/><path id="Shape" fill="#D33367" d="M240,94.3488943 L240,240 L94.3488943,240 C94.3488943,159.559116 159.559116,94.3488943 240,94.3488943 Z"/></g><g transform="translate(0.000000, -1.000000) translate(360.600000, 120.400000) rotate(-180.000000) translate(-360.600000, -120.400000) translate(240.600000, 0.400000)"><path id="Shape" fill="#FF8B61" d="M181.031941,122.063882 C213.599101,122.063882 240,148.464781 240,181.031941 C240,213.599101 213.599101,240 181.031941,240 C148.464781,240 122.063882,213.599101 122.063882,181.031941 C122.063882,148.464781 148.464781,122.063882 181.031941,122.063882 Z"/><path id="Shape" fill="#D33367" d="M181.031941,0 C213.599101,0 240,26.4008993 240,58.968059 C240,91.5352187 213.599101,117.936118 181.031941,117.936118 C148.464781,117.936118 122.063882,91.5352187 122.063882,58.968059 C122.063882,26.4008993 148.464781,0 181.031941,0 Z"/><path id="Shape" fill="#D33367" d="M61.3267813,122.063882 C93.893941,122.063882 120.29484,148.464781 120.29484,181.031941 C120.29484,213.599101 93.893941,240 61.3267813,240 C28.7596216,240 2.35872236,213.599101 2.35872236,181.031941 C2.35872236,148.464781 28.7596216,122.063882 61.3267813,122.063882 Z"/><path id="Shape" fill="#36868E" d="M0,0 L60.4422604,0 C93.8235991,0 120.884521,27.0609218 120.884521,60.4422604 C120.884521,93.8235991 93.8235991,120.884521 60.4422604,120.884521 C27.0609218,120.884521 0,93.8235991 0,60.4422604 L0,0 Z"/></g><g transform="translate(0.000000, -1.000000) translate(600.000000, 841.000000) rotate(-90.000000) translate(-600.000000, -841.000000) translate(480.000000, 721.000000)"><path id="Shape" fill="#D33367" d="M180.737101,121.769042 C213.30426,121.769042 239.70516,148.169941 239.70516,180.737101 C239.70516,213.30426 213.30426,239.70516 180.737101,239.70516 C148.169941,239.70516 121.769042,213.30426 121.769042,180.737101 C121.769042,148.169941 148.169941,121.769042 180.737101,121.769042 Z"/><path id="Shape" fill="#FF8B61" d="M180.737101,0.294840295 C213.30426,0.294840295 239.70516,26.6957396 239.70516,59.2628993 C239.70516,91.830059 213.30426,118.230958 180.737101,118.230958 C148.169941,118.230958 121.769042,91.830059 121.769042,59.2628993 C121.769042,26.6957396 148.169941,0.294840295 180.737101,0.294840295 Z"/><path id="Shape" fill="#FF8B61" d="M61.6216216,121.769042 C94.1887813,121.769042 120.589681,148.169941 120.589681,180.737101 C120.589681,213.30426 94.1887813,239.70516 61.6216216,239.70516 C29.0544619,239.70516 2.65356265,213.30426 2.65356265,180.737101 C2.65356265,148.169941 29.0544619,121.769042 61.6216216,121.769042 Z"/><path id="Shape" fill="#36868E" d="M0,0 L60.1474201,0 C93.365923,0 120.29484,27.0609218 120.29484,60.4422604 C120.29484,93.8235991 93.365923,120.884521 60.1474201,120.884521 C26.9289173,120.884521 0,93.8235991 0,60.4422604 L0,0 Z"/></g><g transform="translate(0.000000, -1.000000) translate(120.000000, 1081.000000) rotate(-180.000000) translate(-120.000000, -1081.000000) translate(0.000000, 961.000000)"><path id="Shape" fill="#D33367" d="M181.031941,122.063882 C213.599101,122.063882 240,148.464781 240,181.031941 C240,213.599101 213.599101,240 181.031941,240 C148.464781,240 122.063882,213.599101 122.063882,181.031941 C122.063882,148.464781 148.464781,122.063882 181.031941,122.063882 Z"/><path id="Shape" fill="#FF8B61" d="M181.031941,0 C213.599101,0 240,26.4008993 240,58.968059 C240,91.5352187 213.599101,117.936118 181.031941,117.936118 C148.464781,117.936118 122.063882,91.5352187 122.063882,58.968059 C122.063882,26.4008993 148.464781,0 181.031941,0 Z"/><path id="Shape" fill="#FF8B61" d="M61.3267813,122.063882 C93.893941,122.063882 120.29484,148.464781 120.29484,181.031941 C120.29484,213.599101 93.893941,240 61.3267813,240 C28.7596216,240 2.35872236,213.599101 2.35872236,181.031941 C2.35872236,148.464781 28.7596216,122.063882 61.3267813,122.063882 Z"/><path id="Shape" fill="#36868E" d="M0,0 L60.4422604,0 C93.8235991,0 120.884521,27.0609218 120.884521,60.4422604 C120.884521,93.8235991 93.8235991,120.884521 60.4422604,120.884521 C27.0609218,120.884521 0,93.8235991 0,60.4422604 L0,0 Z"/></g><g transform="translate(0.000000, -1.000000) translate(840.900000, 841.000000) rotate(-180.000000) translate(-840.900000, -841.000000) translate(744.600000, 743.800000)"><rect id="Shape" width="122.654" height="122.654" x="35.578" y="36.168" fill="#F1E3CF"/><polygon id="Shape" fill="#36868E" points="60.416 60.416 135.19 60.416 135.19 135.19 60.416 135.19" transform="translate(97.803015, 97.803015) rotate(-315.000000) translate(-97.803015, -97.803015)"/><path id="Shape" fill="#D33367" d="M0.197542998,0.197542998 L72.7282555,0.197542998 C72.7282555,40.2551494 40.2551494,72.7282555 0.197542998,72.7282555 L0.197542998,0.197542998 Z"/><path id="Shape" fill="#D33367" d="M0.197542998,194.202457 L0.197542998,121.671744 C40.2551494,121.671744 72.7282555,154.144851 72.7282555,194.202457 L0.197542998,194.202457 Z"/><path id="Shape" fill="#D33367" d="M192.433415,194.202457 L119.902703,194.202457 C119.902703,154.144851 152.375809,121.671744 192.433415,121.671744 L192.433415,194.202457 Z"/><path id="Shape" fill="#D33367" d="M192.433415,0.197542998 L192.433415,72.7282555 C152.375809,72.7282555 119.902703,40.2551494 119.902703,0.197542998 L192.433415,0.197542998 Z"/></g><g transform="translate(0.000000, -1.000000) translate(120.900000, 361.300000) rotate(-180.000000) translate(-120.900000, -361.300000) translate(35.400000, 275.800000)"><g id="Shape"><polygon fill="#FF8B61" points="25.346 25.435 145.777 25.479 145.821 145.91 25.39 145.866" transform="translate(85.583192, 85.672588) rotate(45.000000) translate(-85.583192, -85.672588)"/><polygon fill="#F1E3CF" points="55.251 55.341 115.893 55.363 115.915 116.004 55.274 115.982" transform="translate(85.583192, 85.672588) rotate(45.000000) translate(-85.583192, -85.672588)"/></g></g><g transform="translate(0.000000, -1.000000) translate(839.400000, 120.400000) rotate(-180.000000) translate(-839.400000, -120.400000) translate(753.600000, 35.800000)"><g id="Shape"><rect width="74.774" height="74.774" x="96.657" y="94.251" fill="#F1E3CF"/><rect width="74.774" height="74.774" x="96.657" y=".181" fill="#F1E3CF"/><rect width="74.774" height="74.774" x=".175" y="94.251" fill="#F1E3CF"/><rect width="74.774" height="74.774" x=".175" y=".181" fill="#F1E3CF"/><rect width="34.975" height="34.975" x="117.16" y="114.754" fill="#2D374C"/><rect width="34.975" height="34.975" x="117.16" y="20.683" fill="#2D374C"/><rect width="34.975" height="34.975" x="20.677" y="114.754" fill="#2D374C"/><rect width="34.975" height="34.975" x="20.677" y="20.683" fill="#2D374C"/></g></g><g transform="translate(0.000000, -1.000000) translate(601.500000, 601.300000) rotate(-180.000000) translate(-601.500000, -601.300000) translate(516.000000, 515.800000)"><g id="Shape" transform="translate(0.000000, -0.000000)"><polygon fill="#2D374C" points="25.346 25.435 145.778 25.479 145.822 145.911 25.39 145.867" transform="translate(85.583922, 85.673323) rotate(45.000000) translate(-85.583922, -85.673323)"/><polygon fill="#36868E" points="55.274 55.341 115.894 55.341 115.894 116.005 55.274 116.005"/></g></g><g transform="translate(0.000000, -1.000000) translate(600.000000, 1081.000000) rotate(-360.000000) translate(-600.000000, -1081.000000) translate(480.000000, 961.000000)"><g id="Shape"><path fill="#F1E3CF" d="M120,1.03250741e-14 C186.27417,1.03250741e-14 240,53.72583 240,120 C240,186.27417 186.27417,240 120,240 L-2.84217094e-14,240 L-2.84217094e-14,120 C-2.84217094e-14,53.72583 53.72583,1.03250741e-14 120,1.03250741e-14 Z" transform="translate(0.000000, 0.000000)"/><path fill="#2D374C" d="M71.758794,96.4824121 C111.390082,96.4824121 143.517588,128.609918 143.517588,168.241206 C143.517588,207.872494 111.390082,240 71.758794,240 L0,240 L0,168.241206 C0,128.609918 32.1275064,96.4824121 71.758794,96.4824121 Z" transform="translate(0.000000, 0.000000)"/><path fill="#36868E" d="M120,45.5276382 C160.463878,45.5276382 193.266332,78.3300922 193.266332,118.79397 C193.266332,159.257848 160.463878,192.060302 120,192.060302 C79.5361223,192.060302 46.7336683,159.257848 46.7336683,118.79397 C46.7336683,78.3300922 79.5361223,45.5276382 120,45.5276382 Z" transform="translate(0.000000, 0.000000)"/><path fill="#2D374C" d="M120,75.9045226 C143.687188,75.9045226 162.889447,95.1067822 162.889447,118.79397 C162.889447,142.481157 143.687188,161.683417 120,161.683417 C96.3128124,161.683417 77.1105528,142.481157 77.1105528,118.79397 C77.1105528,95.1067822 96.3128124,75.9045226 120,75.9045226 Z" transform="translate(0.000000, 0.000000)"/></g></g><g transform="translate(0.000000, -1.000000) translate(360.600000, 841.000000) rotate(-360.000000) translate(-360.600000, -841.000000) translate(240.000000, 721.000000)"><g id="Shape"><path fill="#36868E" d="M120,1.03250741e-14 L240,1.03250741e-14 L240,120 C240,186.27417 186.27417,240 120,240 L-2.84217094e-14,240 L-2.84217094e-14,120 C-2.84217094e-14,53.72583 53.72583,1.03250741e-14 120,1.03250741e-14 Z"/><path fill="#2D374C" d="M120,51.8592965 C158.965216,51.8592965 190.552764,83.4468448 190.552764,122.41206 C190.552764,161.377276 158.965216,192.964824 120,192.964824 L49.4472362,192.964824 L49.4472362,122.41206 C49.4472362,83.4468448 81.0347845,51.8592965 120,51.8592965 Z"/><path fill="#F1E3CF" d="M192.603015,0 L240.603015,0 L240.603015,48 C240.603015,87.764502 208.367517,120 168.603015,120 L120.603015,120 L120.603015,72 C120.603015,32.235498 152.838513,0 192.603015,0 Z"/></g></g><g transform="translate(0.000000, -1.000000) translate(840.000000, 1080.400000) rotate(-90.000000) translate(-840.000000, -1080.400000) translate(719.400000, 960.400000)"><g id="Shape"><path fill="#36868E" d="M120.603015,1.03250741e-14 L240,1.03250741e-14 L240,119.396985 C240,186.004191 186.004191,240 119.396985,240 L-2.84217094e-14,240 L-2.84217094e-14,120.603015 C-2.84217094e-14,53.9958091 53.9958091,1.03250741e-14 120.603015,1.03250741e-14 Z"/><path fill="#2D374C" d="M120,51.8592965 C158.965216,51.8592965 190.552764,83.4468448 190.552764,122.41206 C190.552764,161.377276 158.965216,192.964824 120,192.964824 L49.4472362,192.964824 L49.4472362,122.41206 C49.4472362,83.4468448 81.0347845,51.8592965 120,51.8592965 Z"/><path fill="#FF8B61" d="M192.603015,0 L240.603015,0 L240.603015,48 C240.603015,87.764502 208.367517,120 168.603015,120 L120.603015,120 L120.603015,72 C120.603015,32.235498 152.838513,0 192.603015,0 Z"/></g></g><g transform="translate(0.000000, -1.000000) translate(840.000000, 601.000000) rotate(-180.000000) translate(-840.000000, -601.000000) translate(720.000000, 481.000000)"><g id="Shape"><path fill="#F1E3CF" d="M120,1.03250741e-14 C186.27417,1.03250741e-14 240,53.72583 240,120 C240,186.27417 186.27417,240 120,240 L-2.84217094e-14,240 L-2.84217094e-14,120 C-2.84217094e-14,53.72583 53.72583,1.03250741e-14 120,1.03250741e-14 Z"/><path fill="#D33367" d="M71.758794,96.4824121 C111.390082,96.4824121 143.517588,128.609918 143.517588,168.241206 C143.517588,207.872494 111.390082,240 71.758794,240 L0,240 L0,168.241206 C-4.85343295e-15,128.609918 32.1275064,96.4824121 71.758794,96.4824121 Z" transform="translate(71.758794, 168.241206) rotate(-360.000000) translate(-71.758794, -168.241206)"/><path fill="#36868E" d="M120,45.5276382 C160.463878,45.5276382 193.266332,78.3300922 193.266332,118.79397 C193.266332,159.257848 160.463878,192.060302 120,192.060302 C79.5361223,192.060302 46.7336683,159.257848 46.7336683,118.79397 C46.7336683,78.3300922 79.5361223,45.5276382 120,45.5276382 Z"/><path fill="#2D374C" d="M120,75.9045226 C143.687188,75.9045226 162.889447,95.1067822 162.889447,118.79397 C162.889447,142.481157 143.687188,161.683417 120,161.683417 C96.3128124,161.683417 77.1105528,142.481157 77.1105528,118.79397 C77.1105528,95.1067822 96.3128124,75.9045226 120,75.9045226 Z"/></g></g><g transform="translate(0.000000, -1.000000) translate(1440.000000, 241.000000)"><ellipse id="Shape" cx="120.295" cy="119.704" fill="#F1E3CF" rx="100.835" ry="100.788"/><path id="Shape" fill="#D33367" d="M240,0 C240,65.9476962 186.670183,119.408867 120.884521,119.408867 C120.884521,53.4611708 174.214337,0 240,0 Z"/><path id="Shape" fill="#36868E" d="M115.784245,0.14669394 L119.262173,0.14669394 L119.262173,3.61607683 C119.262173,67.4856522 67.3581238,119.262173 3.33123423,119.262173 L-0.14669394,119.262173 L-0.14669394,115.79279 C-0.14669394,51.9232148 51.7573553,0.14669394 115.784245,0.14669394 Z" transform="translate(59.557740, 59.704433) rotate(-270.000000) translate(-59.557740, -59.704433)"/><path id="Shape" fill="#D33367" d="M115.646096,120.591133 L119.115479,120.591133 L119.115479,124.069061 C119.115479,188.095951 67.3389582,240 3.46938289,240 L0,240 L0,236.522072 C0,172.495182 51.7765209,120.591133 115.646096,120.591133 Z"/><path id="Shape" fill="#36868E" d="M236.668766,120.737827 L240.146694,120.737827 L240.146694,124.20721 C240.146694,188.076785 188.242645,239.853306 124.215755,239.853306 L120.737827,239.853306 L120.737827,236.383923 C120.737827,172.514348 172.641876,120.737827 236.668766,120.737827 Z" transform="translate(180.442260, 180.295567) rotate(-270.000000) translate(-180.442260, -180.295567)"/></g><g transform="translate(0.000000, -1.000000) translate(480.000000, 241.000000)"><polygon id="Shape" fill="#FF8B61" points="59.4 0 180.6 0 120 60.6"/><polygon id="Shape" fill="#36868E" points="240 0 240 240 0 240"/><polygon id="Shape" fill="#F1E3CF" points="0 0 240 240 0 240"/></g><g transform="translate(0.000000, -1.000000) translate(240.000000, 961.000000)"><polygon id="Shape" fill="#36868E" points="180.6 240 59.4 240 120 179.4"/><polygon id="Shape" fill="#F1E3CF" points="0 240 0 0 240 0"/><polygon id="Shape" fill="#D33367" points="240 240 0 0 240 0"/></g><g transform="translate(0.000000, -1.000000) translate(960.600000, 721.000000)"><polygon id="Shape" fill="#FF8B61" points="59.4 179.4 180.6 179.4 120 240" transform="translate(120.000000, 209.700000) rotate(-180.000000) translate(-120.000000, -209.700000)"/><polygon id="Shape" fill="#36868E" points="240 0 240 240 0 240" transform="translate(120.000000, 120.000000) rotate(-180.000000) translate(-120.000000, -120.000000)"/><polygon id="Shape" fill="#F1E3CF" points="0 0 240 240 0 240" transform="translate(120.000000, 120.000000) rotate(-180.000000) translate(-120.000000, -120.000000)"/></g><g transform="translate(0.000000, -1.000000) translate(960.600000, 961.000000)"><polygon id="Shape" fill="#FF8B61" points="59.4 0 180.6 0 120 60.6"/><polygon id="Shape" fill="#36868E" points="240 0 240 240 0 240"/><polygon id="Shape" fill="#F1E3CF" points="0 0 240 240 0 240"/></g></g></g></g></svg>