<svg xmlns="http://www.w3.org/2000/svg" width="69" height="24" fill="none" viewBox="0 0 69 24"><path fill="#63AD44" d="M22.0959 7.02319C21.8065 6.34098 21.4547 5.69219 21.0398 5.07682C20.6256 4.46208 20.1559 3.89273 19.6313 3.36815C19.1074 2.84421 18.5374 2.37448 17.9227 1.96024C17.308 1.54537 16.6592 1.19354 15.9764 0.904143C14.5578 0.303903 13.0522 0 11.5 0C9.94775 0 8.44153 0.303903 7.02294 0.904143C6.34076 1.19354 5.692 1.54537 5.07664 1.95961C4.46192 2.37448 3.8926 2.84357 3.36804 3.36815C2.84411 3.89273 2.3744 4.46208 1.96017 5.07682C1.54531 5.69156 1.1935 6.34035 0.904112 7.02319C0.303893 8.44182 0 9.9481 0 11.5004C0 13.0527 0.303893 14.5583 0.904112 15.977C1.17585 16.6182 1.50307 17.2298 1.88514 17.8111C2.26785 18.3931 2.69973 18.9359 3.18015 19.4397C3.66058 19.9435 4.18262 20.4 4.74627 20.8092C5.30929 21.2184 5.9051 21.574 6.53306 21.8753L6.83758 22.021V20.1831L6.83065 20.1793V9.38001C6.84578 8.35229 7.68747 7.51687 8.70759 7.51687C9.72834 7.51687 10.57 8.35229 10.5852 9.38001V16.3824C10.5845 16.4833 10.5997 16.5816 10.6318 16.6775C10.664 16.7733 10.7113 16.8616 10.7724 16.9417C10.8342 17.0217 10.9067 17.0898 10.9912 17.1459C11.0751 17.2014 11.1658 17.2424 11.2636 17.2676C11.3619 17.2935 11.4609 17.3023 11.5618 17.2947C11.6627 17.2872 11.7591 17.2632 11.8518 17.2235C11.9451 17.1831 12.0283 17.1295 12.1034 17.0614C12.1784 16.9934 12.2402 16.9152 12.2887 16.8269C12.3726 16.6976 12.4148 16.5482 12.4148 16.3824V9.38001C12.43 8.35229 13.2717 7.51687 14.2918 7.51687C15.3119 7.51687 16.1542 8.35229 16.1687 9.38001V20.1787L16.1612 20.1831V22.021L16.4657 21.876C17.0936 21.5746 17.6894 21.219 18.2525 20.8098C18.8161 20.4006 19.3382 19.9441 19.8192 19.4403C20.2996 18.9366 20.7315 18.3937 21.1142 17.8118C21.4969 17.2298 21.8242 16.6182 22.0959 15.977C22.6955 14.5583 23 13.0527 23 11.5004C23 9.9481 22.6955 8.44182 22.0959 7.02319ZM17.9965 18.9063L17.9826 9.37623C17.9744 8.39327 17.5873 7.47022 16.8931 6.77792C16.7223 6.60706 16.5363 6.45447 16.3358 6.32018C16.1347 6.18651 15.9228 6.07302 15.6996 5.98096C15.4765 5.88828 15.2463 5.81893 15.0093 5.77227C14.7722 5.72561 14.5326 5.70291 14.2911 5.70354C13.2124 5.70354 12.2087 6.16633 11.4994 6.98284C10.7945 6.17705 9.76996 5.70354 8.70759 5.70354C7.7253 5.70354 6.79849 6.085 6.09929 6.77792C5.39945 7.47085 5.00918 8.39391 5.00099 9.37812V18.9044C2.86176 17.0268 1.64367 14.3534 1.64367 11.5004C1.64367 6.06545 6.06524 1.64436 11.4994 1.64436C16.9341 1.64436 21.3557 6.06545 21.3557 11.5004C21.3557 14.3547 20.137 17.0293 17.9965 18.9063Z"/><path fill="#63AD44" d="M11.5025 21.3566C10.3368 21.3578 9.20693 21.1573 8.11241 20.7557L7.82617 20.6504V22.4019L7.9737 22.4492C8.54429 22.6321 9.12497 22.7695 9.71636 22.8622C10.3078 22.9543 10.9029 23.0003 11.5019 23.0003C12.1002 23.0003 12.6954 22.9543 13.2874 22.8622C13.8788 22.7695 14.4595 22.6321 15.0294 22.4492L15.177 22.4019V20.651L14.8907 20.7557C13.7968 21.1579 12.6676 21.3578 11.5025 21.3566Z"/><path fill="#fff" d="M30.104 18L27.448 13.44H25.688V18H24.232V6.848H27.832C28.6747 6.848 29.384 6.992 29.96 7.28C30.5467 7.568 30.984 7.95733 31.272 8.448C31.56 8.93867 31.704 9.49867 31.704 10.128C31.704 10.896 31.48 11.5733 31.032 12.16C30.5947 12.7467 29.9333 13.136 29.048 13.328L31.848 18H30.104ZM25.688 12.272H27.832C28.6213 12.272 29.2133 12.08 29.608 11.696C30.0027 11.3013 30.2 10.7787 30.2 10.128C30.2 9.46667 30.0027 8.95467 29.608 8.592C29.224 8.22933 28.632 8.048 27.832 8.048H25.688V12.272ZM36.1904 18.144C35.369 18.144 34.6224 17.9573 33.9504 17.584C33.289 17.2107 32.7664 16.6827 32.3824 16C32.009 15.3067 31.8224 14.5067 31.8224 13.6C31.8224 12.704 32.0144 11.9147 32.3984 11.232C32.793 10.5387 33.3264 10.0107 33.9984 9.648C34.6704 9.27467 35.4224 9.088 36.2544 9.088C37.0864 9.088 37.8384 9.27467 38.5104 9.648C39.1824 10.0107 39.7104 10.5333 40.0944 11.216C40.489 11.8987 40.6864 12.6933 40.6864 13.6C40.6864 14.5067 40.4837 15.3067 40.0784 16C39.6837 16.6827 39.145 17.2107 38.4624 17.584C37.7797 17.9573 37.0224 18.144 36.1904 18.144ZM36.1904 16.864C36.713 16.864 37.2037 16.7413 37.6624 16.496C38.121 16.2507 38.489 15.8827 38.7664 15.392C39.0544 14.9013 39.1984 14.304 39.1984 13.6C39.1984 12.896 39.0597 12.2987 38.7824 11.808C38.505 11.3173 38.1424 10.9547 37.6944 10.72C37.2464 10.4747 36.761 10.352 36.2384 10.352C35.705 10.352 35.2144 10.4747 34.7664 10.72C34.329 10.9547 33.977 11.3173 33.7104 11.808C33.4437 12.2987 33.3104 12.896 33.3104 13.6C33.3104 14.3147 33.4384 14.9173 33.6944 15.408C33.961 15.8987 34.313 16.2667 34.7504 16.512C35.1877 16.7467 35.6677 16.864 36.1904 16.864ZM40.4567 13.6C40.4567 12.6933 40.6381 11.904 41.0007 11.232C41.3634 10.5493 41.8647 10.0213 42.5047 9.648C43.1554 9.27467 43.8967 9.088 44.7287 9.088C45.8061 9.088 46.6914 9.34933 47.3847 9.872C48.0887 10.3947 48.5527 11.12 48.7767 12.048H47.2087C47.0594 11.5147 46.7661 11.0933 46.3287 10.784C45.9021 10.4747 45.3687 10.32 44.7287 10.32C43.8967 10.32 43.2247 10.608 42.7127 11.184C42.2007 11.7493 41.9447 12.5547 41.9447 13.6C41.9447 14.656 42.2007 15.472 42.7127 16.048C43.2247 16.624 43.8967 16.912 44.7287 16.912C45.3687 16.912 45.9021 16.7627 46.3287 16.464C46.7554 16.1653 47.0487 15.7387 47.2087 15.184H48.7767C48.5421 16.08 48.0727 16.8 47.3687 17.344C46.6647 17.8773 45.7847 18.144 44.7287 18.144C43.8967 18.144 43.1554 17.9573 42.5047 17.584C41.8647 17.2107 41.3634 16.6827 41.0007 16C40.6381 15.3173 40.4567 14.5173 40.4567 13.6ZM54.0155 18L50.5755 14.128V18H49.1195V6.16H50.5755V13.12L53.9515 9.232H55.9835L51.8555 13.6L55.9995 18H54.0155ZM63.7539 13.28C63.7539 13.5573 63.7379 13.8507 63.7059 14.16H56.6979C56.7512 15.024 57.0445 15.7013 57.5779 16.192C58.1219 16.672 58.7779 16.912 59.5459 16.912C60.1752 16.912 60.6979 16.768 61.1139 16.48C61.5405 16.1813 61.8392 15.7867 62.0099 15.296H63.5779C63.3432 16.1387 62.8739 16.8267 62.1699 17.36C61.4659 17.8827 60.5912 18.144 59.5459 18.144C58.7139 18.144 57.9672 17.9573 57.3059 17.584C56.6552 17.2107 56.1432 16.6827 55.7699 16C55.3965 15.3067 55.2099 14.5067 55.2099 13.6C55.2099 12.6933 55.3912 11.8987 55.7539 11.216C56.1165 10.5333 56.6232 10.0107 57.2739 9.648C57.9352 9.27467 58.6925 9.088 59.5459 9.088C60.3779 9.088 61.1139 9.26933 61.7539 9.632C62.3939 9.99467 62.8845 10.496 63.2259 11.136C63.5779 11.7653 63.7539 12.48 63.7539 13.28ZM62.2499 12.976C62.2499 12.4213 62.1272 11.9467 61.8819 11.552C61.6365 11.1467 61.3005 10.8427 60.8739 10.64C60.4579 10.4267 59.9939 10.32 59.4819 10.32C58.7459 10.32 58.1165 10.5547 57.5939 11.024C57.0819 11.4933 56.7885 12.144 56.7139 12.976H62.2499ZM65.8518 10.432V15.6C65.8518 16.0267 65.9424 16.3307 66.1238 16.512C66.3051 16.6827 66.6198 16.768 67.0677 16.768H68.1398V18H66.8278C66.0171 18 65.4091 17.8133 65.0038 17.44C64.5984 17.0667 64.3958 16.4533 64.3958 15.6V10.432H63.2598V9.232H64.3958V7.024H65.8518V9.232H68.1398V10.432H65.8518Z"/></svg>