<svg xmlns="http://www.w3.org/2000/svg" width="55" height="54" fill="none" viewBox="0 0 55 54"><path fill="#63AD44" d="M51.8786 16.4891C51.1992 14.8874 50.3732 13.3642 49.3991 11.9194C48.4266 10.4761 47.3237 9.13938 46.0921 7.90777C44.862 6.67764 43.5238 5.57481 42.0805 4.60226C40.6372 3.62822 39.114 2.80221 37.5108 2.12275C34.1802 0.713505 30.6452 0 27.0007 0C23.3562 0 19.8198 0.713505 16.4891 2.12275C14.8874 2.80221 13.3642 3.62822 11.9194 4.60078C10.4761 5.57481 9.13938 6.67616 7.90777 7.90777C6.67764 9.13938 5.57481 10.4761 4.60226 11.9194C3.62822 13.3627 2.80221 14.8859 2.12275 16.4891C0.713505 19.8198 0 23.3562 0 27.0007C0 30.6452 0.713505 34.1802 2.12275 37.5108C2.76076 39.0163 3.52904 40.4522 4.4261 41.817C5.32464 43.1834 6.33865 44.4579 7.46664 45.6407C8.59463 46.8234 9.82032 47.8951 11.1437 48.8559C12.4656 49.8166 13.8645 50.6515 15.3389 51.3591L16.0539 51.701V47.3859L16.0376 47.377V22.0224C16.0731 19.6096 18.0493 17.6482 20.4444 17.6482C22.841 17.6482 24.8172 19.6096 24.8528 22.0224V38.4627C24.8513 38.6995 24.8868 38.9304 24.9623 39.1555C25.0378 39.3805 25.1488 39.5877 25.2924 39.7757C25.4375 39.9637 25.6077 40.1236 25.8061 40.2553C26.003 40.3856 26.2161 40.4818 26.4456 40.541C26.6765 40.6017 26.9089 40.6224 27.1458 40.6047C27.3826 40.5869 27.6091 40.5307 27.8267 40.4374C28.0458 40.3427 28.2412 40.2168 28.4173 40.057C28.5935 39.8971 28.7386 39.7135 28.8526 39.5063C29.0494 39.2028 29.1486 38.852 29.1486 38.4627V22.0224C29.1841 19.6096 31.1603 17.6482 33.5555 17.6482C35.9506 17.6482 37.9283 19.6096 37.9623 22.0224V47.3756L37.9446 47.3859V51.701L38.6595 51.3605C40.1339 50.653 41.5328 49.8181 42.8547 48.8573C44.1781 47.8966 45.4038 46.8249 46.5333 45.6421C47.6613 44.4594 48.6753 43.1848 49.5738 41.8185C50.4723 40.4522 51.2406 39.0163 51.8786 37.5108C53.2864 34.1802 54.0014 30.6452 54.0014 27.0007C54.0014 23.3562 53.2864 19.8198 51.8786 16.4891ZM42.2537 44.3883L42.2211 22.0136C42.2019 19.7058 41.293 17.5386 39.6632 15.9132C39.262 15.5121 38.8253 15.1538 38.3546 14.8385C37.8824 14.5247 37.385 14.2583 36.861 14.0421C36.337 13.8245 35.7966 13.6617 35.24 13.5522C34.6835 13.4426 34.1209 13.3893 33.554 13.3908C31.0212 13.3908 28.6646 14.4773 26.9992 16.3943C25.3442 14.5025 22.9387 13.3908 20.4444 13.3908C18.1381 13.3908 15.9621 14.2864 14.3204 15.9132C12.6773 17.5401 11.761 19.7073 11.7417 22.018V44.3839C6.71909 39.9755 3.85915 33.6991 3.85915 27.0007C3.85915 14.2405 14.2405 3.86063 26.9992 3.86063C39.7594 3.86063 50.1408 14.2405 50.1408 27.0007C50.1408 33.702 47.2793 39.9815 42.2537 44.3883Z"/><path fill="#63AD44" d="M27.0008 50.1408C24.2637 50.1438 21.611 49.6731 19.0412 48.7301L18.3691 48.4829V52.5952L18.7155 52.7062C20.0552 53.1355 21.4186 53.4582 22.8071 53.6758C24.1956 53.8919 25.593 54 26.9993 54C28.4041 54 29.8015 53.8919 31.1915 53.6758C32.58 53.4582 33.9434 53.1355 35.2816 52.7062L35.628 52.5952V48.4844L34.9559 48.7301C32.3876 49.6746 29.7364 50.1438 27.0008 50.1408Z"/></svg>