<svg xmlns="http://www.w3.org/2000/svg" width="182" height="190" fill="none" viewBox="0 0 182 190"><path fill="#FFCF4B" d="M0 60C0 31.7157 0 17.5736 8.7868 8.7868C17.5736 0 31.7157 0 60 0H122C150.284 0 164.426 0 173.213 8.7868C182 17.5736 182 31.7157 182 60V130C182 158.284 182 172.426 173.213 181.213C164.426 190 150.284 190 122 190H60C31.7157 190 17.5736 190 8.7868 181.213C0 172.426 0 158.284 0 130V60Z"/><path fill="#000" d="M126.968 98.7598C130.802 95.4214 134.03 92.4909 135.318 90.8773C147.27 75.9117 140.578 49.1748 139.774 46.1742L138.451 41.2175L133.321 41.0197C130.216 40.898 102.641 40.2663 90.6884 55.233C89.3997 56.8466 87.1655 60.5711 84.7574 65.0493L61.4635 65.1584L28.488 106.448L57.7592 106.498L61.3057 137.759L92.5017 134.244L98.9169 162.695L131.892 121.405L126.968 98.7598ZM88.2678 88.9508C90.7503 83.9417 93.3268 78.867 95.567 74.5885L115.396 90.4244C111.719 93.5553 107.339 97.1902 103.003 100.719L88.2678 88.9508ZM127.43 55.0428C128.656 62.4642 129.409 73.9633 125.494 80.674L102.844 62.5847C108.508 57.3122 119.914 55.4972 127.43 55.0428ZM57.4782 92.4835L68.2208 79.0325L77.547 79.036C75.7113 82.7052 74.1793 85.9167 73.2545 87.8155L70.8873 92.5455L57.4782 92.4835ZM73.6218 122.399L72.14 109.232L85.0283 108.117L86.791 120.933L73.6218 122.399ZM106.125 131.335L103.205 118.356L107.37 115.062C109.017 113.74 111.735 111.475 114.907 108.873L116.867 117.884L106.125 131.335Z"/></svg>