<svg xmlns="http://www.w3.org/2000/svg" xmlns:xlink="http://www.w3.org/1999/xlink" width="1600" height="1200" version="1.1" viewBox="0 0 1600 1200"><title>Mataura</title><desc>Created with Sketch.</desc><g id="Patterns" fill="none" fill-rule="evenodd" stroke="none" stroke-width="1"><g id="Mataura" fill-rule="nonzero"><g id="Shape" transform="translate(-590.000000, -735.000000)"><rect width="1286" height="1355" x="745" y="1758" fill="#F83C1E" transform="translate(1388.000000, 2435.500000) rotate(43.000000) translate(-1388.000000, -2435.500000)"/><path fill="#423783" d="M667,1101.56549 C810.04175,1101.56549 926,985.607238 926,842.565488 C926,705.51575 819.240051,592.41076 683.076396,584.057282 C666.538945,583.042729 652.310235,595.626524 651.295682,612.163975 C650.281129,628.701426 662.864924,642.930136 679.402375,643.944689 C783.961941,650.359294 866,737.273104 866,842.565488 C866,952.470153 776.904665,1041.56549 667,1041.56549 C650.431458,1041.56549 637,1054.99695 637,1071.56549 C637,1088.13403 650.431458,1101.56549 667,1101.56549 Z" transform="translate(781.500000, 842.782744) scale(-1, 1) translate(-781.500000, -842.782744)"/><rect width="1658" height="1355" x="1200" y="590" fill="#2C99B0" transform="translate(2029.000000, 1267.500000) rotate(43.000000) translate(-2029.000000, -1267.500000)"/><path fill="#D0E215" d="M966.233169,1594.78101 C950.359419,1601.8999 931.720201,1594.80268 924.60131,1578.92893 C917.48242,1563.05518 924.579636,1544.41596 940.453386,1537.29707 C1037.94683,1493.57425 1122.73557,1425.20873 1186.37644,1339.37998 C1195.11465,1327.59525 1210.83156,1323.40327 1224.27799,1329.27096 C1244.18536,1337.95804 1265.7452,1342.5 1288,1342.5 C1376.08942,1342.5 1447.5,1271.08942 1447.5,1183 C1447.5,1125.24407 1416.56969,1072.91575 1367.39524,1044.62753 C1342.0657,1030.05639 1348.50648,991.84228 1377.21278,986.378586 C1539.37025,955.515019 1658.5,813.075882 1658.5,646 C1658.5,454.633334 1503.36667,299.5 1312,299.5 C1206.83076,299.5 1109.43698,346.601888 1043.98727,426.365872 C1032.95185,439.814813 1013.10335,441.771356 999.65441,430.735934 C986.205469,419.700512 984.248925,399.852015 995.284347,386.403074 C1072.57623,292.206953 1187.76293,236.5 1312,236.5 C1538.16061,236.5 1721.5,419.839395 1721.5,646 C1721.5,843.464982 1580.73462,1011.77307 1388.99216,1048.26757 L1398.8097,990.018627 C1467.33106,1029.4364 1510.5,1102.4702 1510.5,1183 C1510.5,1305.88336 1410.88336,1405.5 1288,1405.5 C1257.03272,1405.5 1226.89896,1399.15179 1199.08094,1387.0127 L1211.67946,1358.14183 L1236.98248,1376.90368 C1166.93071,1471.37845 1073.60314,1546.62887 966.233169,1594.78101 Z M1035.72854,379.305441 C1050.68388,388.193211 1055.60261,407.521868 1046.71484,422.477205 C1037.82707,437.432541 1018.49841,442.351275 1003.54308,433.463505 C908.237955,376.824855 799.377008,346.5 686,346.5 C342.199611,346.5 63.5000003,625.205875 63.5000003,969.020277 C63.5002607,977.197301 63.6580119,985.35486 63.97246,993.490126 C64.6443941,1010.87411 51.0965972,1025.51133 33.7126086,1026.18327 C16.3286201,1026.8552 1.69140285,1013.3074 1.01946879,995.923415 C0.673712787,986.978164 0.500000339,978.010026 0.500000339,969.02128 C0.500000339,590.412253 307.405355,283.5 686,283.5 C810.784095,283.5 930.750981,316.918582 1035.72854,379.305441 Z"/><path fill="#E95272" d="M2112.31425,1368 C2490.07702,1368 2796.31425,1061.76277 2796.31425,684 C2796.31425,306.237231 2490.07702,0 2112.31425,0 C2002.47469,0 1896.29097,25.9369836 1800.64413,74.9788173 C1785.90066,82.5383638 1780.07694,100.61853 1787.63649,115.361998 C1795.19603,130.105466 1813.2762,135.929186 1828.01967,128.369639 C1915.24341,83.6466536 2012.05072,60 2112.31425,60 C2456.93994,60 2736.31425,339.374316 2736.31425,684 C2736.31425,1028.62568 2456.93994,1308 2112.31425,1308 C2095.74571,1308 2082.31425,1321.43146 2082.31425,1338 C2082.31425,1354.56854 2095.74571,1368 2112.31425,1368 Z M1663.29797,1199.99764 C1786.92049,1307.65974 1944.9832,1368 2112.31425,1368 C2128.8828,1368 2142.31425,1354.56854 2142.31425,1338 C2142.31425,1321.43146 2128.8828,1308 2112.31425,1308 C1959.60769,1308 1815.50341,1252.98836 1702.70291,1154.75109 C1690.20842,1143.86972 1671.25854,1145.17741 1660.37716,1157.6719 C1649.49579,1170.16639 1650.80348,1189.11627 1663.29797,1199.99764 Z"/><rect width="1286" height="494" x="1355" y="1840" fill="#F6B800" transform="translate(1998.000000, 2087.000000) rotate(43.000000) translate(-1998.000000, -2087.000000)"/><circle cx="611" cy="1434" r="250" fill="#423783"/><circle cx="954" cy="1565" r="28" fill="#2C99B0"/><path fill="#FFEAAB" d="M1889.05173,948.728968 C1870.27405,948.728968 1855.05173,933.50665 1855.05173,914.728968 C1855.05173,895.951287 1870.27405,880.728968 1889.05173,880.728968 C1907.82941,880.728968 1923.05173,895.951287 1923.05173,914.728968 C1923.05173,933.50665 1907.82941,948.728968 1889.05173,948.728968 Z M2024.97531,937.652543 C2006.19763,937.652543 1990.97531,922.430225 1990.97531,903.652543 C1990.97531,884.874862 2006.19763,869.652543 2024.97531,869.652543 C2043.75299,869.652543 2058.97531,884.874862 2058.97531,903.652543 C2058.97531,922.430225 2043.75299,937.652543 2024.97531,937.652543 Z M2177.97531,937.652543 C2159.19763,937.652543 2143.97531,922.430225 2143.97531,903.652543 C2143.97531,884.874862 2159.19763,869.652543 2177.97531,869.652543 C2196.75299,869.652543 2211.97531,884.874862 2211.97531,903.652543 C2211.97531,922.430225 2196.75299,937.652543 2177.97531,937.652543 Z M2341.8259,937.468037 C2323.04822,937.468037 2307.8259,922.245719 2307.8259,903.468037 C2307.8259,884.690356 2323.04822,869.468037 2341.8259,869.468037 C2360.60358,869.468037 2375.8259,884.690356 2375.8259,903.468037 C2375.8259,922.245719 2360.60358,937.468037 2341.8259,937.468037 Z M1889.05173,1057.72897 C1879.66289,1057.72897 1872.05173,1050.11781 1872.05173,1040.72897 C1872.05173,1031.34013 1879.66289,1023.72897 1889.05173,1023.72897 C1898.44057,1023.72897 1906.05173,1031.34013 1906.05173,1040.72897 C1906.05173,1050.11781 1898.44057,1057.72897 1889.05173,1057.72897 Z M2040.05173,1057.72897 C2030.66289,1057.72897 2023.05173,1050.11781 2023.05173,1040.72897 C2023.05173,1031.34013 2030.66289,1023.72897 2040.05173,1023.72897 C2049.44057,1023.72897 2057.05173,1031.34013 2057.05173,1040.72897 C2057.05173,1050.11781 2049.44057,1057.72897 2040.05173,1057.72897 Z M2191.05173,1057.72897 C2181.66289,1057.72897 2174.05173,1050.11781 2174.05173,1040.72897 C2174.05173,1031.34013 2181.66289,1023.72897 2191.05173,1023.72897 C2200.44057,1023.72897 2208.05173,1031.34013 2208.05173,1040.72897 C2208.05173,1050.11781 2200.44057,1057.72897 2191.05173,1057.72897 Z M2341.8259,1057.64675 C2332.43706,1057.64675 2324.8259,1050.03559 2324.8259,1040.64675 C2324.8259,1031.25791 2332.43706,1023.64675 2341.8259,1023.64675 C2351.21474,1023.64675 2358.8259,1031.25791 2358.8259,1040.64675 C2358.8259,1050.03559 2351.21474,1057.64675 2341.8259,1057.64675 Z" transform="translate(2115.438817, 963.598503) rotate(-45.000000) translate(-2115.438817, -963.598503)"/></g></g></g></svg>