<?xml version="1.0" encoding="UTF-8"?>
<svg width="1600px" height="1200px" viewBox="0 0 1600 1200" version="1.1" xmlns="http://www.w3.org/2000/svg" xmlns:xlink="http://www.w3.org/1999/xlink">
    <!-- Generator: Sketch 55.2 (78181) - https://sketchapp.com -->
    <title>Rhône</title>
    <desc>Created with Sketch.</desc>
    <g id="Patterns" stroke="none" stroke-width="1" fill="none" fill-rule="evenodd">
        <g id="Rhône" fill-rule="nonzero">
            <g transform="translate(0.000000, -0.000000)" id="Shape">
                <path d="M800,800.689655 C800,911.145655 710.456,1000.68966 600,1000.68966 L600,800.689655 L800,800.689655 Z" fill="#FF743C"></path>
                <path d="M600,1200.68966 C489.544,1200.68966 400,1111.14566 400,1000.68966 L600,1000.68966 L600,1200.68966 Z" fill="#FF743C"></path>
                <path d="M1000,1200.68966 L1000,1200.68966 C889.544,1200.68966 800,1111.14566 800,1000.68966 L800,1000.68966 L1000,1000.68966 L1000,1200.68966 Z" fill="#F0F1F1" transform="translate(900.000000, 1100.689655) rotate(-90.000000) translate(-900.000000, -1100.689655) "></path>
                <path d="M0,1000.68966 L0,1000.68966 C0,890.233655 89.543,800.689655 200,800.689655 L200,800.689655 L200,1000.68966 L0,1000.68966 Z" fill="#FF743C"></path>
                <path d="M1400,400 L1400,400 C1289.544,400 1200,310.456 1200,200 L1200,200 L1400,200 L1400,400 Z" fill="#FFC700"></path>
                <path d="M1400,800.689655 C1289.544,800.689655 1200,711.145655 1200,600.689655 L1400,600.689655 L1400,800.689655 Z" fill="#2D3652"></path>
                <path d="M1000,400.689655 C1110.456,400.689655 1200,490.233655 1200,600.689655 L1000,600.689655 L1000,400.689655 Z" fill="#D5E155"></path>
                <path d="M400,0 C510.456,0 600,89.544 600,200 L400,200 L400,0 Z" fill="#FF743C" transform="translate(500.000000, 100.000000) rotate(-270.000000) translate(-500.000000, -100.000000) "></path>
                <path d="M600,1000.68966 L600,1000.68966 C489.542,1000.68966 400,911.145655 400,800.689655 L400,800.689655 L600,800.689655 L600,1000.68966 Z" fill="#2D3652"></path>
                <path d="M600,902.758621 L600,902.758621 C543.627911,902.758621 497.931034,857.061744 497.931034,800.689655 L497.931034,800.689655 L600,800.689655 L600,902.758621 Z" fill="#6ED47C"></path>
                <path d="M200,1200.68966 L200,1200.68966 C89.5430109,1200.68966 0,1111.14566 0,1000.68966 L0,1000.68966 L200,1000.68966 L200,1200.68966 Z" fill="#D5E155"></path>
                <path d="M200,1102.75862 L200,1102.75862 C143.628911,1102.75862 97.9310345,1057.06174 97.9310345,1000.68966 L97.9310345,1000.68966 L200,1000.68966 L200,1102.75862 Z" fill="#2D3652"></path>
                <path d="M800,1200.68966 L800,1200.68966 C689.542,1200.68966 600,1111.14566 600,1000.68966 L600,1000.68966 L800,1000.68966 L800,1200.68966 Z" fill="#6ED47C"></path>
                <path d="M800,1102.75862 L800,1102.75862 C743.627911,1102.75862 697.931034,1057.06174 697.931034,1000.68966 L697.931034,1000.68966 L800,1000.68966 L800,1102.75862 Z" fill="#D5E155"></path>
                <path d="M200,400.689655 L200,500.689655 C200,555.917655 155.2284,600.689655 100,600.689655 L100,500.689655 C100,445.461655 144.7716,400.689655 200,400.689655 Z" fill="#D5E155"></path>
                <path d="M300,600.689655 L300,500.689655 C300,445.461655 255.228,400.689655 200,400.689655 L200,400.689655 L200,500.689655 C200,555.917655 244.772,600.689655 300,600.689655 L300,600.689655 Z" fill="#2D3652"></path>
                <path d="M1397,82 L1297,82 C1241.772,82 1197,126.772 1197,182 L1197,182 L1297,182 C1352.228,182 1397,137.228 1397,82 L1397,82 Z" fill="#2D3652"></path>
                <path d="M100,500.689655 L100,600.689655 C100,655.917655 55.2284093,700.689655 0,700.689655 L0,700.689655 L0,600.689655 C0,545.461655 44.7716114,500.689655 100,500.689655 L100,500.689655 Z" fill="#6ED47C"></path>
                <path d="M1597,101 L1497,101 C1441.772,101 1397,145.7716 1397,201 L1397,201 L1497,201 C1552.228,201 1597,156.2284 1597,101 L1597,101 Z" fill="#FFC700"></path>
                <path d="M1597,101 L1497,101 C1441.772,101 1397,56.2284132 1397,1 L1397,1 L1497,1 C1552.228,1 1597,45.7716162 1597,101 L1597,101 Z" fill="#FF743C"></path>
                <path d="M600,500 L700,500 C755.228,500 800,455.228 800,400 L800,400 L700,400 C644.772,400 600,444.772 600,500 L600,500 Z" fill="#2D3652"></path>
                <path d="M500,600 L600,600 C655.228,600 700,555.228 700,500 L700,500 L600,500 C544.772,500 500,544.772 500,600 L500,600 Z" fill="#6ED47C"></path>
                <path d="M600,0 L600,200 C600,310.456 689.544,400 800,400 L800,400 L800,200 C800,89.544 710.456,0 600,0 L600,0 Z" fill="#FF743C"></path>
                <path d="M700,200.689655 L700,299.841028 C700,355.156825 744.772,400 800,400 L800,400 L800,300.848627 C800,245.530827 755.228,200.689655 700,200.689655 L700,200.689655 Z" fill="#2D3652"></path>
                <path d="M0,400.689655 L0,200.344828 C0,89.6983862 89.5430043,-3.69482223e-13 200,-3.69482223e-13 L200,-3.69482223e-13 L200,200.344828 C200,310.991269 110.457003,400.689655 0,400.689655 L0,400.689655 Z" fill="#2D3652"></path>
                <path d="M100,199.310345 L100,100.159072 C100,44.8433302 144.7716,3.83693077e-13 200,3.83693077e-13 L200,3.83693077e-13 L200,99.1514734 C200,154.469218 155.2284,199.310345 100,199.310345 L100,199.310345 Z" fill="#6ED47C"></path>
                <path d="M400,800.689655 L400,1000.68966 C400,1111.14566 310.456,1200.68966 200,1200.68966 L200,1200.68966 L200,1000.68966 C200,890.233655 289.544,800.689655 400,800.689655 L400,800.689655 Z" fill="#F0F1F1" transform="translate(300.000000, 1000.689655) scale(-1, 1) rotate(-180.000000) translate(-300.000000, -1000.689655) "></path>
                <path d="M300,800.689655 L300,899.841028 C300,955.156825 255.228,1000 200,1000 L200,1000 L200,900.848627 C200,845.530827 244.772,800.689655 300,800.689655 L300,800.689655 Z" fill="#FFC700" transform="translate(250.000000, 900.344828) scale(-1, 1) rotate(-180.000000) translate(-250.000000, -900.344828) "></path>
                <path d="M400,0 L400,200 C400,310.456 310.456,400 200,400 L200,400 L200,200 C200,89.544 289.544,0 400,0 L400,0 Z" fill="#F0F1F1"></path>
                <path d="M300,201.37931 L300,300.530683 C300,355.84648 255.228,400.689655 200,400.689655 L200,400.689655 L200,301.538282 C200,246.220482 244.772,201.37931 300,201.37931 L300,201.37931 Z" fill="#D5E155"></path>
                <path d="M1200,200 L1000,200 C889.544,200 800,289.544 800,400 L800,400 L1000,400 C1110.456,400 1200,310.456 1200,200 L1200,200 Z" fill="#2D3652"></path>
                <path d="M1000,300 L900.505543,300 C844.998342,300 800,344.772 800,400 L800,400 L899.494457,400 C955.003668,400 1000,355.228 1000,300 L1000,300 Z" fill="#F0F1F1"></path>
                <path d="M1200,600.689655 L1000,600.689655 C889.544,600.689655 800,690.233655 800,800.689655 L800,800.689655 L1000,800.689655 C1110.456,800.689655 1200,711.145655 1200,600.689655 L1200,600.689655 Z" fill="#F0F1F1"></path>
                <path d="M999.310345,700.689655 L900.158972,700.689655 C844.843175,700.689655 800,745.461655 800,800.689655 L800,800.689655 L899.151373,800.689655 C954.469173,800.689655 999.310345,755.917655 999.310345,700.689655 L999.310345,700.689655 Z" fill="#2D3652"></path>
                <path d="M600,600.689655 L400,600.689655 C289.544,600.689655 200,690.233655 200,800.689655 L200,800.689655 L400,800.689655 C510.456,800.689655 600,711.145655 600,600.689655 L600,600.689655 Z" fill="#F0F1F1"></path>
                <path d="M399.310345,700.689655 L300.158972,700.689655 C244.843175,700.689655 200,745.461655 200,800.689655 L200,800.689655 L299.151373,800.689655 C354.469173,800.689655 399.310345,755.917655 399.310345,700.689655 L399.310345,700.689655 Z" fill="#FF743C"></path>
                <path d="M800,800.689655 L1000,800.689655 C1110.456,800.689655 1200,890.233655 1200,1000.68966 L1200,1000.68966 L1000,1000.68966 C889.544,1000.68966 800,911.145655 800,800.689655 L800,800.689655 Z" fill="#2D3652"></path>
                <path d="M1000,900.689655 L1099.49446,900.689655 C1155.00166,900.689655 1200,945.461655 1200,1000.68966 L1200,1000.68966 L1100.50554,1000.68966 C1044.99633,1000.68966 1000,955.917655 1000,900.689655 L1000,900.689655 Z" fill="#6ED47C"></path>
                <path d="M1200,1200.68966 L1200,1000.68966 C1200,890.233655 1289.544,800.689655 1400,800.689655 L1400,800.689655 L1400,1000.68966 C1400,1111.14566 1310.456,1200.68966 1200,1200.68966 L1200,1200.68966 Z" fill="#6ED47C"></path>
                <path d="M1300,1000 L1300,900.847621 C1300,845.532379 1344.772,800.689655 1400,800.689655 L1400,800.689655 L1400,899.842035 C1400,955.157276 1355.228,1000 1300,1000 L1300,1000 Z" fill="#2D3652"></path>
                <path d="M1140.68966,800 C1140.68966,766.862 1167.55166,740 1200.68966,740 L1200.68966,740 C1233.82766,740 1260.68966,766.862 1260.68966,800 L1260.68966,800 C1260.68966,833.138 1233.82766,860 1200.68966,860 L1200.68966,860 C1167.55166,860 1140.68966,833.138 1140.68966,800 L1140.68966,800 Z" fill="#FF743C"></path>
                <path d="M1171.03448,800.344828 C1171.03448,783.776828 1184.46648,770.344828 1201.03448,770.344828 L1201.03448,770.344828 C1217.60248,770.344828 1231.03448,783.776828 1231.03448,800.344828 L1231.03448,800.344828 C1231.03448,816.912828 1217.60248,830.344828 1201.03448,830.344828 L1201.03448,830.344828 C1184.46648,830.344828 1171.03448,816.912828 1171.03448,800.344828 L1171.03448,800.344828 Z" fill="#FFC700"></path>
                <path d="M719.310345,547.241379 C719.310345,530.673379 732.742345,517.241379 749.310345,517.241379 L749.310345,517.241379 C765.878345,517.241379 779.310345,530.673379 779.310345,547.241379 L779.310345,547.241379 C779.310345,563.809379 765.878345,577.241379 749.310345,577.241379 L749.310345,577.241379 C732.742345,577.241379 719.310345,563.809379 719.310345,547.241379 L719.310345,547.241379 Z" fill="#FF743C"></path>
                <path d="M519.310345,450.689655 C519.310345,434.121655 532.742345,420.689655 549.310345,420.689655 L549.310345,420.689655 C565.878345,420.689655 579.310345,434.121655 579.310345,450.689655 L579.310345,450.689655 C579.310345,467.257655 565.878345,480.689655 549.310345,480.689655 L549.310345,480.689655 C532.742345,480.689655 519.310345,467.257655 519.310345,450.689655 L519.310345,450.689655 Z" fill="#6ED47C"></path>
                <path d="M1222.06897,51.3793103 C1222.06897,34.8113103 1235.50097,21.3793103 1252.06897,21.3793103 L1252.06897,21.3793103 C1268.63697,21.3793103 1282.06897,34.8113103 1282.06897,51.3793103 L1282.06897,51.3793103 C1282.06897,67.9473103 1268.63697,81.3793103 1252.06897,81.3793103 L1252.06897,81.3793103 C1235.50097,81.3793103 1222.06897,67.9473103 1222.06897,51.3793103 L1222.06897,51.3793103 Z" fill="#6ED47C"></path>
                <path d="M1318.62069,51.3793103 C1318.62069,34.8113103 1332.05269,21.3793103 1348.62069,21.3793103 L1348.62069,21.3793103 C1365.18869,21.3793103 1378.62069,34.8113103 1378.62069,51.3793103 L1378.62069,51.3793103 C1378.62069,67.9473103 1365.18869,81.3793103 1348.62069,81.3793103 L1348.62069,81.3793103 C1332.05269,81.3793103 1318.62069,67.9473103 1318.62069,51.3793103 L1318.62069,51.3793103 Z" fill="#D5E155"></path>
                <path d="M174.482759,745.172414 C174.482759,761.740414 161.051359,775.172414 144.482759,775.172414 L144.482759,775.172414 C127.914159,775.172414 114.482759,761.740414 114.482759,745.172414 L114.482759,745.172414 C114.482759,728.604414 127.914159,715.172414 144.482759,715.172414 L144.482759,715.172414 C161.051359,715.172414 174.482759,728.604414 174.482759,745.172414 L174.482759,745.172414 Z" fill="#FF743C"></path>
                <path d="M80,745.172414 C80,761.740414 66.5686,775.172414 50,775.172414 L50,775.172414 C33.4314,775.172414 20,761.740414 20,745.172414 L20,745.172414 C20,728.604414 33.4314,715.172414 50,715.172414 L50,715.172414 C66.5686,715.172414 80,728.604414 80,745.172414 L80,745.172414 Z" fill="#2D3652"></path>
                <path d="M174.482759,650.689655 C174.482759,667.257655 161.051359,680.689655 144.482759,680.689655 L144.482759,680.689655 C127.914159,680.689655 114.482759,667.257655 114.482759,650.689655 L114.482759,650.689655 C114.482759,634.121655 127.914159,620.689655 144.482759,620.689655 L144.482759,620.689655 C161.051359,620.689655 174.482759,634.121655 174.482759,650.689655 L174.482759,650.689655 Z" fill="#6ED47C"></path>
                <path d="M1162.06897,389.310345 C1162.06897,372.742345 1175.50097,359.310345 1192.06897,359.310345 L1192.06897,359.310345 C1208.63697,359.310345 1222.06897,372.742345 1222.06897,389.310345 L1222.06897,389.310345 C1222.06897,405.878345 1208.63697,419.310345 1192.06897,419.310345 L1192.06897,419.310345 C1175.50097,419.310345 1162.06897,405.878345 1162.06897,389.310345 L1162.06897,389.310345 Z" fill="#FF743C"></path>
                <path d="M773.103448,949.655172 C773.103448,934.800307 785.145134,922.758621 800,922.758621 C814.854866,922.758621 826.896552,934.800307 826.896552,949.655172 C826.896552,964.510038 814.854866,976.551724 800,976.551724 C785.145134,976.551724 773.103448,964.510038 773.103448,949.655172 Z" fill="#FF743C"></path>
                <path d="M23.4482759,450.344828 C23.4482759,435.489962 35.4903602,423.448276 50.3448276,423.448276 L50.3448276,423.448276 C65.199295,423.448276 77.2413793,435.489962 77.2413793,450.344828 L77.2413793,450.344828 C77.2413793,465.199693 65.199295,477.241379 50.3448276,477.241379 L50.3448276,477.241379 C35.4903602,477.241379 23.4482759,465.199693 23.4482759,450.344828 L23.4482759,450.344828 Z" fill="#FF743C"></path>
                <path d="M800,500 C800,444.772 844.772,400 900,400 L900,400 C955.228,400 1000,444.772 1000,500 L1000,500 C1000,555.228 955.228,600 900,600 L800,600 L800,500 Z" fill="#FF743C"></path>
                <path d="M800,548.964513 C800,520.399013 823.157634,497.241379 851.725142,497.241379 L851.725142,497.241379 C880.290642,497.241379 903.448276,520.399013 903.448276,548.964513 L903.448276,548.964513 C903.448276,577.532021 880.290642,600.689655 851.725142,600.689655 L800,600.689655 L800,548.964513 Z" fill="#FFC700"></path>
                <path d="M1400,500 C1400,444.772 1355.228,400 1300,400 L1300,400 C1244.772,400 1200,444.772 1200,500 L1200,500 C1200,555.228 1244.772,600 1300,600 L1400,600 L1400,500 Z" fill="#FF743C"></path>
                <path d="M1400,548.274858 C1400,519.709358 1376.84237,496.551724 1348.27486,496.551724 L1348.27486,496.551724 C1319.70936,496.551724 1296.55172,519.709358 1296.55172,548.274858 L1296.55172,548.274858 C1296.55172,576.842366 1319.70936,600 1348.27486,600 L1400,600 L1400,548.274858 Z" fill="#FFC700"></path>
                <path d="M1200,100 C1200,44.772 1155.228,0 1100,0 L1100,0 C1044.772,0 1000,44.772 1000,100 L1000,100 C1000,155.228 1044.772,200 1100,200 L1200,200 L1200,100 Z" fill="#D5E155"></path>
                <path d="M1200,148.274858 C1200,119.709358 1176.84237,96.5517241 1148.27486,96.5517241 L1148.27486,96.5517241 C1119.70936,96.5517241 1096.55172,119.709358 1096.55172,148.274858 L1096.55172,148.274858 C1096.55172,176.842366 1119.70936,200 1148.27486,200 L1200,200 L1200,148.274858 Z" fill="#FF743C"></path>
                <path d="M800,100 C800,155.228 844.772,200 900,200 L900,200 C955.228,200 1000,155.228 1000,100 L1000,100 C1000,44.772 955.228,0 900,0 L800,0 L800,100 Z" fill="#6ED47C"></path>
                <path d="M800,51.725142 C800,80.2906418 823.157634,103.448276 851.725142,103.448276 L851.725142,103.448276 C880.290642,103.448276 903.448276,80.2906418 903.448276,51.725142 L903.448276,51.725142 C903.448276,23.157634 880.290642,1.7408297e-12 851.725142,1.7408297e-12 L800,1.7408297e-12 L800,51.725142 Z" fill="#2D3652"></path>
                <path d="M400,300 C400,244.772 444.772,200 500,200 L500,200 C555.228,200 600,244.772 600,300 L600,300 C600,355.228 555.228,400 500,400 L500,400 C444.772,400 400,355.228 400,300 L400,300 Z" fill="#FFC700"></path>
                <path d="M444.827586,300.344828 C444.827586,269.684233 469.684233,244.827586 500.344828,244.827586 L500.344828,244.827586 C531.005422,244.827586 555.862069,269.684233 555.862069,300.344828 L555.862069,300.344828 C555.862069,331.005422 531.005422,355.862069 500.344828,355.862069 L500.344828,355.862069 C469.684233,355.862069 444.827586,331.005422 444.827586,300.344828 L444.827586,300.344828 Z" fill="#2D3652"></path>
                <path d="M1000,1100.68966 C1000,1045.46166 1044.772,1000.68966 1100,1000.68966 L1100,1000.68966 C1155.228,1000.68966 1200,1045.46166 1200,1100.68966 L1200,1100.68966 C1200,1155.91766 1155.228,1200.68966 1100,1200.68966 L1100,1200.68966 C1044.772,1200.68966 1000,1155.91766 1000,1100.68966 L1000,1100.68966 Z" fill="#FF743C"></path>
                <path d="M1044.82759,1099.65517 C1044.82759,1068.99458 1069.68423,1044.13793 1100.34483,1044.13793 L1100.34483,1044.13793 C1131.00542,1044.13793 1155.86207,1068.99458 1155.86207,1099.65517 L1155.86207,1099.65517 C1155.86207,1130.31577 1131.00542,1155.17241 1100.34483,1155.17241 L1100.34483,1155.17241 C1069.68423,1155.17241 1044.82759,1130.31577 1044.82759,1099.65517 L1044.82759,1099.65517 Z" fill="#2D3652"></path>
                <path d="M800,700.689655 C800,755.917655 755.382386,800.689655 700.344828,800.689655 C645.307269,800.689655 600.689655,755.917655 600.689655,700.689655 C600.689655,645.461655 645.307269,600.689655 700.344828,600.689655 L800,600.689655 L800,700.689655 Z" fill="#D5E155"></path>
                <path d="M400,600.689655 C455.228,600.689655 500,555.917655 500,500.689655 C500,445.461655 455.228,400.689655 400,400.689655 C344.772,400.689655 300,445.461655 300,500.689655 L300,600.689655 L400,600.689655 Z" fill="#FF743C"></path>
                <path d="M1599.31034,400 C1488.85434,400 1399.31034,310.456 1399.31034,200 L1599.31034,200 L1599.31034,400 Z" fill="#FF743C" transform="translate(1499.310345, 300.000000) scale(-1, -1) rotate(-90.000000) translate(-1499.310345, -300.000000) "></path>
                <path d="M1599.31034,800 L1599.31034,800 C1488.85434,800 1399.31034,710.456 1399.31034,600 L1399.31034,600 L1599.31034,600 L1599.31034,800 Z" fill="#F0F1F1" transform="translate(1499.310345, 700.000000) scale(-1, -1) rotate(-180.000000) translate(-1499.310345, -700.000000) "></path>
                <path d="M1599.31034,600 L1599.31034,600 C1488.85234,600 1399.31034,510.456 1399.31034,400 L1399.31034,400 L1599.31034,400 L1599.31034,600 Z" fill="#6ED47C" transform="translate(1499.310345, 500.000000) scale(-1, -1) rotate(-90.000000) translate(-1499.310345, -500.000000) "></path>
                <path d="M1599.31034,600 L1599.31034,600 C1542.93826,600 1497.24138,554.303124 1497.24138,497.931034 L1497.24138,497.931034 L1599.31034,497.931034 L1599.31034,600 Z" fill="#D5E155" transform="translate(1548.275862, 548.965517) scale(-1, -1) rotate(-90.000000) translate(-1548.275862, -548.965517) "></path>
                <path d="M1600,1101 C1600,1045.772 1555.228,1001 1500,1001 L1500,1001 C1444.772,1001 1400,1045.772 1400,1101 L1400,1101 C1400,1156.228 1444.772,1201 1500,1201 L1600,1201 L1600,1101 Z" fill="#FFC700" transform="translate(1500.000000, 1101.000000) scale(-1, -1) translate(-1500.000000, -1101.000000) "></path>
                <path d="M1503.44828,1052.72313 C1503.44828,1024.15763 1480.29064,1001 1451.72313,1001 L1451.72313,1001 C1423.15763,1001 1400,1024.15763 1400,1052.72313 L1400,1052.72313 C1400,1081.29064 1423.15763,1104.44828 1451.72313,1104.44828 L1503.44828,1104.44828 L1503.44828,1052.72313 Z" fill="#FFC700" transform="translate(1451.724138, 1052.724138) scale(-1, -1) translate(-1451.724138, -1052.724138) "></path>
                <path d="M1399.31034,900 C1399.31034,844.772 1444.08234,800 1499.31034,800 L1499.31034,800 C1554.53834,800 1599.31034,844.772 1599.31034,900 L1599.31034,900 C1599.31034,955.228 1554.53834,1000 1499.31034,1000 L1499.31034,1000 C1444.08234,1000 1399.31034,955.228 1399.31034,900 L1399.31034,900 Z" fill="#FF743C" transform="translate(1499.310345, 900.000000) scale(-1, -1) rotate(-90.000000) translate(-1499.310345, -900.000000) "></path>
                <path d="M1444.82759,900.344828 C1444.82759,869.684233 1469.68423,844.827586 1500.34483,844.827586 L1500.34483,844.827586 C1531.00542,844.827586 1555.86207,869.684233 1555.86207,900.344828 L1555.86207,900.344828 C1555.86207,931.005422 1531.00542,955.862069 1500.34483,955.862069 L1500.34483,955.862069 C1469.68423,955.862069 1444.82759,931.005422 1444.82759,900.344828 L1444.82759,900.344828 Z" fill="#2D3652" transform="translate(1500.344828, 900.344828) scale(-1, -1) rotate(-90.000000) translate(-1500.344828, -900.344828) "></path>
            </g>
        </g>
    </g>
</svg>